G75*
G70*
%OFA0B0*%
%FSLAX24Y24*%
%IPPOS*%
%LPD*%
%AMOC8*
5,1,8,0,0,1.08239X$1,22.5*
%
%ADD10R,0.0118X0.0315*%
%ADD11R,0.0315X0.0118*%
%ADD12R,0.0354X0.0276*%
%ADD13R,0.0291X0.0364*%
%ADD14R,0.0299X0.0945*%
%ADD15R,0.0276X0.0354*%
%ADD16R,0.0364X0.0291*%
%ADD17R,0.0315X0.0138*%
%ADD18C,0.0515*%
%ADD19C,0.0050*%
%ADD20C,0.0260*%
%ADD21C,0.0060*%
%ADD22C,0.0280*%
D10*
X001458Y002485D03*
X001655Y002485D03*
X001851Y002485D03*
X002048Y002485D03*
X002245Y002485D03*
X002442Y002485D03*
X002442Y004060D03*
X002245Y004060D03*
X002048Y004060D03*
X001851Y004060D03*
X001655Y004060D03*
X001458Y004060D03*
D11*
X001162Y003765D03*
X001162Y003568D03*
X001162Y003371D03*
X001162Y003174D03*
X001162Y002977D03*
X001162Y002780D03*
X002737Y002780D03*
X002737Y002977D03*
X002737Y003174D03*
X002737Y003371D03*
X002737Y003568D03*
X002737Y003765D03*
D12*
X000765Y003796D03*
X000765Y003284D03*
X000777Y004623D03*
X000777Y005135D03*
D13*
X003159Y003139D03*
X003159Y002666D03*
X000678Y002485D03*
X000678Y002013D03*
D14*
X003938Y001776D03*
X004438Y001776D03*
X004938Y001776D03*
X005438Y001776D03*
X005938Y001776D03*
X005938Y003312D03*
X005438Y003312D03*
X004938Y003312D03*
X004438Y003312D03*
X003938Y003312D03*
D15*
X003859Y000891D03*
X004371Y000891D03*
D16*
X003403Y000871D03*
X002930Y000871D03*
X003855Y004658D03*
X003804Y005103D03*
X004277Y005103D03*
X004328Y004658D03*
D17*
X003178Y004658D03*
X003178Y005170D03*
X002430Y005170D03*
X002430Y004914D03*
X002430Y004658D03*
D18*
X005096Y004954D03*
X005883Y004954D03*
D19*
X000454Y001732D02*
X000454Y000765D01*
X002623Y000765D01*
X002623Y000846D01*
X002905Y000846D01*
X002905Y000896D01*
X002623Y000896D01*
X002623Y000957D01*
X001678Y000957D01*
X001610Y001024D01*
X001610Y001300D01*
X001414Y001496D01*
X001258Y001496D01*
X001126Y001628D01*
X001126Y001814D01*
X001258Y001946D01*
X001445Y001946D01*
X001576Y001814D01*
X001576Y001659D01*
X001706Y001530D01*
X001835Y001659D01*
X002319Y001659D01*
X002319Y002243D01*
X002199Y002243D01*
X002184Y002228D01*
X002156Y002211D01*
X002124Y002203D01*
X002053Y002203D01*
X002053Y002481D01*
X002044Y002481D01*
X002044Y002203D01*
X001973Y002203D01*
X001941Y002211D01*
X001913Y002228D01*
X001897Y002243D01*
X001805Y002243D01*
X001790Y002228D01*
X001762Y002211D01*
X001730Y002203D01*
X001659Y002203D01*
X001659Y002481D01*
X001650Y002481D01*
X001462Y002481D01*
X001462Y002490D01*
X001453Y002490D01*
X001453Y002768D01*
X001405Y002768D01*
X001405Y002875D01*
X001401Y002879D01*
X001405Y002883D01*
X001405Y003071D01*
X001401Y003076D01*
X001405Y003080D01*
X001405Y003268D01*
X001401Y003272D01*
X001405Y003277D01*
X001405Y003465D01*
X001401Y003469D01*
X001405Y003473D01*
X001405Y003662D01*
X001401Y003666D01*
X001405Y003670D01*
X001405Y003777D01*
X001453Y003777D01*
X001453Y004055D01*
X001462Y004055D01*
X001462Y003777D01*
X001533Y003777D01*
X001565Y003786D01*
X001594Y003802D01*
X001609Y003817D01*
X001749Y003817D01*
X001753Y003822D01*
X001757Y003817D01*
X001770Y003817D01*
X002044Y003544D01*
X002111Y003476D01*
X002463Y003476D01*
X002455Y003446D01*
X002455Y003375D01*
X002733Y003375D01*
X002733Y003366D01*
X002455Y003366D01*
X002455Y003295D01*
X002463Y003264D01*
X001405Y003264D01*
X001405Y003312D02*
X002455Y003312D01*
X002455Y003361D02*
X001405Y003361D01*
X001405Y003409D02*
X002455Y003409D01*
X002458Y003458D02*
X001405Y003458D01*
X001405Y003506D02*
X002081Y003506D01*
X002032Y003555D02*
X001405Y003555D01*
X001405Y003603D02*
X001984Y003603D01*
X001935Y003652D02*
X001405Y003652D01*
X001405Y003700D02*
X001887Y003700D01*
X001838Y003749D02*
X001405Y003749D01*
X001453Y003797D02*
X001462Y003797D01*
X001453Y003846D02*
X001462Y003846D01*
X001453Y003894D02*
X001462Y003894D01*
X001453Y003943D02*
X001462Y003943D01*
X001453Y003991D02*
X001462Y003991D01*
X001453Y004040D02*
X001462Y004040D01*
X001453Y004055D02*
X001274Y004055D01*
X001274Y003909D01*
X001027Y003909D01*
X001027Y003969D01*
X000977Y004019D01*
X000823Y004019D01*
X000859Y004055D01*
X000869Y004046D01*
X001047Y004046D01*
X001173Y004172D01*
X001173Y004350D01*
X001105Y004418D01*
X001137Y004568D01*
X001146Y004577D01*
X001146Y004611D01*
X001154Y004644D01*
X001146Y004655D01*
X001146Y004668D01*
X001123Y004692D01*
X001104Y004721D01*
X001091Y004723D01*
X001082Y004733D01*
X001048Y004733D01*
X001039Y004735D01*
X001039Y004796D01*
X000989Y004846D01*
X000564Y004846D01*
X000514Y004796D01*
X000514Y004506D01*
X000454Y004445D01*
X000454Y004899D01*
X000822Y004899D01*
X000835Y004912D01*
X000989Y004912D01*
X001039Y004962D01*
X001039Y005012D01*
X001729Y005012D01*
X001729Y004661D01*
X001599Y004531D01*
X001599Y004345D01*
X001641Y004302D01*
X001609Y004302D01*
X001594Y004317D01*
X001565Y004334D01*
X001533Y004342D01*
X001462Y004342D01*
X001462Y004064D01*
X001453Y004064D01*
X001453Y004055D01*
X001453Y004064D02*
X001274Y004064D01*
X001274Y004234D01*
X001173Y004234D01*
X001173Y004282D02*
X001292Y004282D01*
X001299Y004294D02*
X001282Y004266D01*
X001274Y004234D01*
X001253Y004221D02*
X001411Y004221D01*
X001411Y004339D01*
X001382Y004342D02*
X001350Y004334D01*
X001322Y004317D01*
X001299Y004294D01*
X001345Y004331D02*
X001173Y004331D01*
X001143Y004379D02*
X001599Y004379D01*
X001599Y004428D02*
X001107Y004428D01*
X001117Y004476D02*
X001599Y004476D01*
X001599Y004525D02*
X001128Y004525D01*
X001143Y004573D02*
X001641Y004573D01*
X001690Y004622D02*
X001149Y004622D01*
X001145Y004670D02*
X001729Y004670D01*
X001729Y004719D02*
X001106Y004719D01*
X001039Y004767D02*
X001729Y004767D01*
X001729Y004816D02*
X001019Y004816D01*
X000990Y004913D02*
X001729Y004913D01*
X001729Y004961D02*
X001039Y004961D01*
X001039Y005010D02*
X001729Y005010D01*
X001729Y004864D02*
X000454Y004864D01*
X000454Y004816D02*
X000535Y004816D01*
X000514Y004767D02*
X000454Y004767D01*
X000454Y004719D02*
X000514Y004719D01*
X000514Y004670D02*
X000454Y004670D01*
X000454Y004622D02*
X000514Y004622D01*
X000514Y004573D02*
X000454Y004573D01*
X000454Y004525D02*
X000514Y004525D01*
X000485Y004476D02*
X000454Y004476D01*
X000485Y004320D02*
X000777Y004615D01*
X000777Y004623D01*
X001036Y004623D01*
X000958Y004261D01*
X001090Y004088D02*
X001274Y004088D01*
X001274Y004040D02*
X000844Y004040D01*
X001005Y003991D02*
X001274Y003991D01*
X001274Y003943D02*
X001027Y003943D01*
X001162Y003769D02*
X000662Y003769D01*
X000662Y004162D01*
X000485Y004320D02*
X000485Y003532D01*
X001162Y003532D01*
X001162Y003568D01*
X001162Y003765D02*
X001162Y003769D01*
X001162Y003765D02*
X000765Y003765D01*
X000765Y003796D01*
X001138Y004137D02*
X001274Y004137D01*
X001274Y004185D02*
X001173Y004185D01*
X001382Y004342D02*
X001453Y004342D01*
X001453Y004064D01*
X001453Y004088D02*
X001462Y004088D01*
X001453Y004137D02*
X001462Y004137D01*
X001453Y004185D02*
X001462Y004185D01*
X001453Y004234D02*
X001462Y004234D01*
X001453Y004282D02*
X001462Y004282D01*
X001453Y004331D02*
X001462Y004331D01*
X001570Y004331D02*
X001613Y004331D01*
X001959Y004621D02*
X001959Y005174D01*
X001891Y005242D01*
X001039Y005242D01*
X001039Y005308D01*
X000989Y005357D01*
X000564Y005357D01*
X000514Y005308D01*
X000514Y005119D01*
X000454Y005119D01*
X000454Y005571D01*
X006186Y005571D01*
X006186Y005118D01*
X006173Y005148D01*
X006077Y005244D01*
X005989Y005280D01*
X005989Y005369D01*
X005925Y005434D01*
X003759Y005434D01*
X003694Y005369D01*
X003694Y005334D01*
X003587Y005334D01*
X003537Y005284D01*
X003537Y005280D01*
X003415Y005280D01*
X003371Y005324D01*
X002986Y005324D01*
X002936Y005274D01*
X002936Y005066D01*
X002986Y005016D01*
X003371Y005016D01*
X003415Y005060D01*
X003537Y005060D01*
X003537Y004922D01*
X003587Y004872D01*
X003622Y004872D01*
X003588Y004839D01*
X003588Y004768D01*
X003415Y004768D01*
X003371Y004812D01*
X002986Y004812D01*
X002936Y004762D01*
X002936Y004614D01*
X002878Y004672D01*
X002699Y004672D01*
X002673Y004646D01*
X002673Y004753D01*
X002688Y004769D01*
X002704Y004797D01*
X002713Y004829D01*
X002713Y004905D01*
X002440Y004905D01*
X002440Y004924D01*
X002713Y004924D01*
X002713Y005000D01*
X002704Y005031D01*
X002688Y005060D01*
X002673Y005075D01*
X002673Y005274D01*
X002623Y005324D01*
X002238Y005324D01*
X002188Y005274D01*
X002188Y005075D01*
X002173Y005060D01*
X002156Y005031D01*
X002148Y005000D01*
X002148Y004924D01*
X002421Y004924D01*
X002421Y004905D01*
X002148Y004905D01*
X002148Y004829D01*
X002156Y004797D01*
X002173Y004769D01*
X002188Y004753D01*
X002188Y004554D01*
X002238Y004504D01*
X002295Y004504D01*
X002278Y004487D01*
X002278Y004309D01*
X002285Y004302D01*
X002151Y004302D01*
X002147Y004298D01*
X002143Y004302D01*
X002007Y004302D01*
X002049Y004345D01*
X002049Y004531D01*
X001959Y004621D01*
X001959Y004622D02*
X002188Y004622D01*
X002188Y004670D02*
X001959Y004670D01*
X001959Y004719D02*
X002188Y004719D01*
X002174Y004767D02*
X001959Y004767D01*
X001959Y004816D02*
X002151Y004816D01*
X002148Y004864D02*
X001959Y004864D01*
X001959Y004913D02*
X002421Y004913D01*
X002430Y004914D02*
X001411Y005442D01*
X001430Y005442D01*
X001039Y005301D02*
X002214Y005301D01*
X002188Y005252D02*
X001039Y005252D01*
X000997Y005349D02*
X003694Y005349D01*
X003723Y005398D02*
X000454Y005398D01*
X000454Y005446D02*
X006186Y005446D01*
X006186Y005398D02*
X005960Y005398D01*
X005989Y005349D02*
X006186Y005349D01*
X006186Y005301D02*
X005989Y005301D01*
X006056Y005252D02*
X006186Y005252D01*
X006186Y005204D02*
X006117Y005204D01*
X006165Y005155D02*
X006186Y005155D01*
X006186Y005495D02*
X000454Y005495D01*
X000454Y005543D02*
X006186Y005543D01*
X005879Y005324D02*
X003804Y005324D01*
X003804Y005103D01*
X003607Y005170D01*
X003178Y005170D01*
X002936Y005155D02*
X002673Y005155D01*
X002673Y005107D02*
X002936Y005107D01*
X002943Y005058D02*
X002689Y005058D01*
X002710Y005010D02*
X003537Y005010D01*
X003537Y005058D02*
X003413Y005058D01*
X003537Y004961D02*
X002713Y004961D01*
X002713Y004864D02*
X003614Y004864D01*
X003588Y004816D02*
X002709Y004816D01*
X002687Y004767D02*
X002941Y004767D01*
X002936Y004719D02*
X002673Y004719D01*
X002673Y004670D02*
X002697Y004670D01*
X002880Y004670D02*
X002936Y004670D01*
X002928Y004622D02*
X002936Y004622D01*
X002788Y004457D02*
X003438Y004221D01*
X003655Y004221D01*
X003655Y004044D01*
X004403Y004044D01*
X004403Y003312D01*
X004438Y003312D01*
X004673Y003312D02*
X004703Y003312D01*
X004703Y003264D02*
X004673Y003264D01*
X004673Y003215D02*
X004703Y003215D01*
X004703Y003167D02*
X004673Y003167D01*
X004673Y003118D02*
X004703Y003118D01*
X004703Y003070D02*
X004673Y003070D01*
X004673Y003021D02*
X004703Y003021D01*
X004703Y002973D02*
X004673Y002973D01*
X004673Y002924D02*
X004703Y002924D01*
X004703Y002876D02*
X004673Y002876D01*
X004673Y002827D02*
X004703Y002827D01*
X004703Y002804D02*
X004753Y002754D01*
X005123Y002754D01*
X005173Y002804D01*
X005173Y002863D01*
X005203Y002863D01*
X005203Y002804D01*
X005253Y002754D01*
X005328Y002754D01*
X005328Y002502D01*
X005393Y002438D01*
X006163Y002438D01*
X006163Y002294D01*
X006123Y002334D01*
X005753Y002334D01*
X005703Y002284D01*
X005703Y001280D01*
X005673Y001280D01*
X005673Y002284D01*
X005623Y002334D01*
X005253Y002334D01*
X005203Y002284D01*
X005203Y001280D01*
X005173Y001280D01*
X005173Y002284D01*
X005123Y002334D01*
X004753Y002334D01*
X004703Y002284D01*
X004703Y001280D01*
X004673Y001280D01*
X004673Y002284D01*
X004623Y002334D01*
X004513Y002334D01*
X004513Y002581D01*
X004517Y002621D01*
X004513Y002626D01*
X004513Y002633D01*
X004485Y002661D01*
X004460Y002692D01*
X004453Y002692D01*
X004448Y002697D01*
X004409Y002697D01*
X004143Y002727D01*
X004164Y002739D01*
X004188Y002763D01*
X004204Y002791D01*
X004207Y002801D01*
X004253Y002754D01*
X004623Y002754D01*
X004673Y002804D01*
X004673Y003819D01*
X004623Y003869D01*
X004513Y003869D01*
X004513Y004090D01*
X004448Y004154D01*
X003765Y004154D01*
X003765Y004267D01*
X003700Y004331D01*
X003616Y004331D01*
X003712Y004427D01*
X003712Y004428D01*
X003745Y004428D01*
X003745Y004353D01*
X003810Y004288D01*
X005882Y004288D01*
X005907Y004263D01*
X005907Y003869D01*
X005753Y003869D01*
X005703Y003819D01*
X005703Y003729D01*
X005673Y003729D01*
X005673Y003819D01*
X005623Y003869D01*
X005253Y003869D01*
X005203Y003819D01*
X005203Y003729D01*
X005173Y003729D01*
X005173Y003819D01*
X005123Y003869D01*
X004753Y003869D01*
X004703Y003819D01*
X004703Y002804D01*
X004729Y002779D02*
X004647Y002779D01*
X004512Y002633D02*
X005328Y002633D01*
X005328Y002585D02*
X004513Y002585D01*
X004513Y002536D02*
X005328Y002536D01*
X005343Y002488D02*
X004513Y002488D01*
X004513Y002439D02*
X005391Y002439D01*
X005438Y002548D02*
X005438Y003312D01*
X005203Y003749D02*
X005173Y003749D01*
X005173Y003797D02*
X005203Y003797D01*
X005230Y003846D02*
X005146Y003846D01*
X004730Y003846D02*
X004646Y003846D01*
X004673Y003797D02*
X004703Y003797D01*
X004703Y003749D02*
X004673Y003749D01*
X004673Y003700D02*
X004703Y003700D01*
X004703Y003652D02*
X004673Y003652D01*
X004673Y003603D02*
X004703Y003603D01*
X004703Y003555D02*
X004673Y003555D01*
X004673Y003506D02*
X004703Y003506D01*
X004703Y003458D02*
X004673Y003458D01*
X004673Y003409D02*
X004703Y003409D01*
X004703Y003361D02*
X004673Y003361D01*
X004207Y003823D02*
X004204Y003833D01*
X004188Y003861D01*
X004164Y003884D01*
X004136Y003901D01*
X004104Y003909D01*
X003963Y003909D01*
X003963Y003337D01*
X003913Y003337D01*
X003913Y003909D01*
X003772Y003909D01*
X003740Y003901D01*
X003712Y003884D01*
X003688Y003861D01*
X003672Y003833D01*
X003663Y003801D01*
X003663Y003337D01*
X003913Y003337D01*
X003913Y003287D01*
X003663Y003287D01*
X003663Y002823D01*
X003672Y002791D01*
X003679Y002778D01*
X003627Y002784D01*
X003627Y003934D01*
X004293Y003934D01*
X004293Y003869D01*
X004253Y003869D01*
X004207Y003823D01*
X004196Y003846D02*
X004230Y003846D01*
X004293Y003894D02*
X004147Y003894D01*
X003963Y003894D02*
X003913Y003894D01*
X003913Y003846D02*
X003963Y003846D01*
X003963Y003797D02*
X003913Y003797D01*
X003913Y003749D02*
X003963Y003749D01*
X003963Y003700D02*
X003913Y003700D01*
X003913Y003652D02*
X003963Y003652D01*
X003963Y003603D02*
X003913Y003603D01*
X003913Y003555D02*
X003963Y003555D01*
X003963Y003506D02*
X003913Y003506D01*
X003913Y003458D02*
X003963Y003458D01*
X003963Y003409D02*
X003913Y003409D01*
X003913Y003361D02*
X003963Y003361D01*
X003913Y003312D02*
X003627Y003312D01*
X003627Y003264D02*
X003663Y003264D01*
X003663Y003215D02*
X003627Y003215D01*
X003627Y003167D02*
X003663Y003167D01*
X003663Y003118D02*
X003627Y003118D01*
X003627Y003070D02*
X003663Y003070D01*
X003663Y003021D02*
X003627Y003021D01*
X003627Y002973D02*
X003663Y002973D01*
X003663Y002924D02*
X003627Y002924D01*
X003627Y002876D02*
X003663Y002876D01*
X003663Y002827D02*
X003627Y002827D01*
X003675Y002779D02*
X003679Y002779D01*
X003517Y002686D02*
X003517Y004083D01*
X002926Y004083D01*
X002493Y004398D01*
X002278Y004379D02*
X002049Y004379D01*
X002049Y004428D02*
X002278Y004428D01*
X002278Y004476D02*
X002049Y004476D01*
X002049Y004525D02*
X002217Y004525D01*
X002188Y004573D02*
X002007Y004573D01*
X002035Y004331D02*
X002278Y004331D01*
X001790Y003797D02*
X001585Y003797D01*
X001405Y003215D02*
X002495Y003215D01*
X002495Y003220D02*
X002495Y003128D01*
X002480Y003113D01*
X002463Y003084D01*
X002455Y003053D01*
X002455Y002982D01*
X002733Y002982D01*
X002733Y002973D01*
X001405Y002973D01*
X001405Y003021D02*
X002455Y003021D01*
X002455Y002973D02*
X002455Y002902D01*
X002463Y002870D01*
X002480Y002841D01*
X002495Y002826D01*
X002495Y002728D01*
X002348Y002728D01*
X002344Y002723D01*
X002339Y002728D01*
X002199Y002728D01*
X002184Y002743D01*
X002156Y002759D01*
X002124Y002768D01*
X002053Y002768D01*
X002053Y002490D01*
X002044Y002490D01*
X002044Y002768D01*
X001973Y002768D01*
X001941Y002759D01*
X001913Y002743D01*
X001897Y002728D01*
X001805Y002728D01*
X001790Y002743D01*
X001762Y002759D01*
X001730Y002768D01*
X001659Y002768D01*
X001659Y002490D01*
X001650Y002490D01*
X001650Y002768D01*
X001579Y002768D01*
X001556Y002761D01*
X001533Y002768D01*
X001462Y002768D01*
X001462Y002490D01*
X001471Y002490D01*
X001650Y002490D01*
X001650Y002481D01*
X001650Y002203D01*
X001579Y002203D01*
X001556Y002209D01*
X001533Y002203D01*
X001462Y002203D01*
X001462Y002481D01*
X001453Y002481D01*
X001274Y002481D01*
X001274Y002311D01*
X001282Y002279D01*
X001299Y002251D01*
X001322Y002228D01*
X001350Y002211D01*
X001382Y002203D01*
X001453Y002203D01*
X001453Y002481D01*
X001453Y002490D01*
X001274Y002490D01*
X001274Y002636D01*
X000970Y002636D01*
X000920Y002686D01*
X000920Y002867D01*
X000788Y002867D01*
X000788Y002752D01*
X000859Y002752D01*
X000909Y002702D01*
X000909Y002286D01*
X000924Y002271D01*
X000940Y002243D01*
X000949Y002211D01*
X000949Y002038D01*
X000703Y002038D01*
X000703Y001988D01*
X000949Y001988D01*
X000949Y001814D01*
X000940Y001782D01*
X000924Y001754D01*
X000901Y001730D01*
X000872Y001714D01*
X000840Y001706D01*
X000703Y001706D01*
X000703Y001988D01*
X000653Y001988D01*
X000653Y001706D01*
X000516Y001706D01*
X000484Y001714D01*
X000456Y001730D01*
X000454Y001732D01*
X000454Y001712D02*
X000492Y001712D01*
X000454Y001663D02*
X001126Y001663D01*
X001126Y001712D02*
X000864Y001712D01*
X000928Y001760D02*
X001126Y001760D01*
X001126Y001809D02*
X000948Y001809D01*
X000949Y001857D02*
X001169Y001857D01*
X001218Y001906D02*
X000949Y001906D01*
X000949Y001954D02*
X002319Y001954D01*
X002319Y001906D02*
X001485Y001906D01*
X001534Y001857D02*
X002319Y001857D01*
X002319Y001809D02*
X001576Y001809D01*
X001576Y001760D02*
X002319Y001760D01*
X002319Y001712D02*
X001576Y001712D01*
X001576Y001663D02*
X002319Y001663D01*
X002319Y002003D02*
X000703Y002003D01*
X000703Y001954D02*
X000653Y001954D01*
X000653Y001906D02*
X000703Y001906D01*
X000703Y001857D02*
X000653Y001857D01*
X000653Y001809D02*
X000703Y001809D01*
X000703Y001760D02*
X000653Y001760D01*
X000653Y001712D02*
X000703Y001712D01*
X000454Y001615D02*
X001140Y001615D01*
X001188Y001566D02*
X000454Y001566D01*
X000454Y001518D02*
X001237Y001518D01*
X001441Y001469D02*
X000454Y001469D01*
X000454Y001421D02*
X001489Y001421D01*
X001538Y001372D02*
X000454Y001372D01*
X000454Y001324D02*
X001586Y001324D01*
X001610Y001275D02*
X000454Y001275D01*
X000454Y001227D02*
X001610Y001227D01*
X001610Y001178D02*
X000454Y001178D01*
X000454Y001130D02*
X001610Y001130D01*
X001610Y001081D02*
X000454Y001081D01*
X000454Y001033D02*
X001610Y001033D01*
X001650Y000984D02*
X000454Y000984D01*
X000454Y000936D02*
X002623Y000936D01*
X002623Y000839D02*
X000454Y000839D01*
X000454Y000887D02*
X002905Y000887D01*
X002930Y000871D02*
X002930Y000835D01*
X002375Y000835D01*
X002623Y000790D02*
X000454Y000790D01*
X000949Y002051D02*
X002319Y002051D01*
X002319Y002100D02*
X000949Y002100D01*
X000949Y002148D02*
X002319Y002148D01*
X002319Y002197D02*
X000949Y002197D01*
X000939Y002245D02*
X001304Y002245D01*
X001278Y002294D02*
X000909Y002294D01*
X000909Y002342D02*
X001274Y002342D01*
X001274Y002391D02*
X000909Y002391D01*
X000909Y002439D02*
X001274Y002439D01*
X001274Y002536D02*
X000909Y002536D01*
X000909Y002488D02*
X001453Y002488D01*
X001462Y002488D02*
X001650Y002488D01*
X001650Y002536D02*
X001659Y002536D01*
X001650Y002585D02*
X001659Y002585D01*
X001650Y002633D02*
X001659Y002633D01*
X001650Y002682D02*
X001659Y002682D01*
X001650Y002730D02*
X001659Y002730D01*
X001803Y002730D02*
X001900Y002730D01*
X002044Y002730D02*
X002053Y002730D01*
X002044Y002682D02*
X002053Y002682D01*
X002044Y002633D02*
X002053Y002633D01*
X002044Y002585D02*
X002053Y002585D01*
X002044Y002536D02*
X002053Y002536D01*
X002044Y002439D02*
X002053Y002439D01*
X002044Y002391D02*
X002053Y002391D01*
X002044Y002342D02*
X002053Y002342D01*
X002044Y002294D02*
X002053Y002294D01*
X002044Y002245D02*
X002053Y002245D01*
X001659Y002245D02*
X001650Y002245D01*
X001650Y002294D02*
X001659Y002294D01*
X001650Y002342D02*
X001659Y002342D01*
X001650Y002391D02*
X001659Y002391D01*
X001650Y002439D02*
X001659Y002439D01*
X001462Y002439D02*
X001453Y002439D01*
X001453Y002391D02*
X001462Y002391D01*
X001453Y002342D02*
X001462Y002342D01*
X001453Y002294D02*
X001462Y002294D01*
X001453Y002245D02*
X001462Y002245D01*
X001453Y002536D02*
X001462Y002536D01*
X001453Y002585D02*
X001462Y002585D01*
X001453Y002633D02*
X001462Y002633D01*
X001453Y002682D02*
X001462Y002682D01*
X001453Y002730D02*
X001462Y002730D01*
X001405Y002779D02*
X002495Y002779D01*
X002494Y002827D02*
X001405Y002827D01*
X001404Y002876D02*
X002462Y002876D01*
X002455Y002924D02*
X001405Y002924D01*
X001405Y003070D02*
X002459Y003070D01*
X002485Y003118D02*
X001405Y003118D01*
X001405Y003167D02*
X002495Y003167D01*
X002495Y003220D02*
X002480Y003235D01*
X002463Y003264D01*
X002455Y002973D02*
X002733Y002973D01*
X002737Y002977D02*
X002966Y002977D01*
X002966Y002706D01*
X003139Y002706D01*
X003159Y002666D01*
X003162Y002666D01*
X003162Y002154D01*
X003184Y002359D02*
X003321Y002359D01*
X003352Y002368D01*
X003381Y002384D01*
X003404Y002407D01*
X003421Y002436D01*
X003429Y002468D01*
X003429Y002618D01*
X003435Y002612D01*
X003459Y002582D01*
X003466Y002581D01*
X003471Y002576D01*
X003511Y002576D01*
X004293Y002489D01*
X004293Y002334D01*
X004253Y002334D01*
X004203Y002284D01*
X004203Y001269D01*
X004253Y001219D01*
X004264Y001219D01*
X004261Y001216D01*
X004261Y001153D01*
X004198Y001153D01*
X004148Y001103D01*
X004148Y000765D01*
X004082Y000765D01*
X004082Y001103D01*
X004032Y001153D01*
X003686Y001153D01*
X003637Y001103D01*
X003637Y001085D01*
X003620Y001102D01*
X003555Y001102D01*
X003594Y001140D01*
X003594Y001318D01*
X003468Y001444D01*
X003290Y001444D01*
X003209Y001363D01*
X003167Y001405D01*
X003407Y001646D01*
X003703Y001646D01*
X003703Y001269D01*
X003753Y001219D01*
X004123Y001219D01*
X004173Y001269D01*
X004173Y002284D01*
X004123Y002334D01*
X003753Y002334D01*
X003703Y002284D01*
X003703Y001876D01*
X003446Y001876D01*
X003427Y001895D01*
X003331Y001895D01*
X003244Y001808D01*
X002879Y001443D01*
X002847Y001411D01*
X002847Y002636D01*
X002888Y002636D01*
X002888Y002468D01*
X002896Y002436D01*
X002913Y002407D01*
X002936Y002384D01*
X002965Y002368D01*
X002996Y002359D01*
X003134Y002359D01*
X003134Y002641D01*
X003184Y002641D01*
X003184Y002359D01*
X003184Y002391D02*
X003134Y002391D01*
X003134Y002439D02*
X003184Y002439D01*
X003184Y002488D02*
X003134Y002488D01*
X003134Y002536D02*
X003184Y002536D01*
X003184Y002585D02*
X003134Y002585D01*
X003134Y002633D02*
X003184Y002633D01*
X003184Y002691D02*
X003134Y002691D01*
X003134Y002871D01*
X003184Y002871D01*
X003184Y002691D01*
X003184Y002730D02*
X003134Y002730D01*
X003134Y002779D02*
X003184Y002779D01*
X003184Y002827D02*
X003134Y002827D01*
X002888Y002633D02*
X002847Y002633D01*
X002847Y002585D02*
X002888Y002585D01*
X002888Y002536D02*
X002847Y002536D01*
X002847Y002488D02*
X002888Y002488D01*
X002895Y002439D02*
X002847Y002439D01*
X002847Y002391D02*
X002929Y002391D01*
X002847Y002342D02*
X004293Y002342D01*
X004293Y002391D02*
X003388Y002391D01*
X003422Y002439D02*
X004293Y002439D01*
X004293Y002488D02*
X003429Y002488D01*
X003429Y002536D02*
X003866Y002536D01*
X003913Y002752D02*
X003913Y003287D01*
X003963Y003287D01*
X003963Y002747D01*
X003913Y002752D01*
X003913Y002779D02*
X003963Y002779D01*
X003963Y002827D02*
X003913Y002827D01*
X003913Y002876D02*
X003963Y002876D01*
X003963Y002924D02*
X003913Y002924D01*
X003913Y002973D02*
X003963Y002973D01*
X003963Y003021D02*
X003913Y003021D01*
X003913Y003070D02*
X003963Y003070D01*
X003963Y003118D02*
X003913Y003118D01*
X003913Y003167D02*
X003963Y003167D01*
X003963Y003215D02*
X003913Y003215D01*
X003913Y003264D02*
X003963Y003264D01*
X003663Y003361D02*
X003627Y003361D01*
X003627Y003409D02*
X003663Y003409D01*
X003663Y003458D02*
X003627Y003458D01*
X003627Y003506D02*
X003663Y003506D01*
X003663Y003555D02*
X003627Y003555D01*
X003627Y003603D02*
X003663Y003603D01*
X003663Y003652D02*
X003627Y003652D01*
X003627Y003700D02*
X003663Y003700D01*
X003663Y003749D02*
X003627Y003749D01*
X003627Y003797D02*
X003663Y003797D01*
X003680Y003846D02*
X003627Y003846D01*
X003627Y003894D02*
X003729Y003894D01*
X003765Y004185D02*
X005907Y004185D01*
X005907Y004137D02*
X004465Y004137D01*
X004513Y004088D02*
X005907Y004088D01*
X005907Y004040D02*
X004513Y004040D01*
X004513Y003991D02*
X005907Y003991D01*
X005907Y003943D02*
X004513Y003943D01*
X004513Y003894D02*
X005907Y003894D01*
X005730Y003846D02*
X005646Y003846D01*
X005673Y003797D02*
X005703Y003797D01*
X005703Y003749D02*
X005673Y003749D01*
X005938Y003312D02*
X006017Y003312D01*
X006017Y004398D01*
X006017Y004457D01*
X005899Y004457D01*
X005899Y004930D01*
X005883Y004954D02*
X005879Y004954D01*
X005879Y005324D01*
X005659Y005214D02*
X005593Y005148D01*
X005540Y005022D01*
X005540Y004885D01*
X005593Y004760D01*
X005689Y004663D01*
X005789Y004622D01*
X005288Y004622D01*
X005277Y004615D02*
X005339Y004656D01*
X005393Y004710D01*
X005434Y004772D01*
X005463Y004842D01*
X005478Y004916D01*
X005478Y004929D01*
X005121Y004929D01*
X005121Y004979D01*
X005478Y004979D01*
X005478Y004991D01*
X005463Y005065D01*
X005434Y005135D01*
X005393Y005197D01*
X005376Y005214D01*
X005659Y005214D01*
X005649Y005204D02*
X005386Y005204D01*
X005421Y005155D02*
X005600Y005155D01*
X005576Y005107D02*
X005446Y005107D01*
X005465Y005058D02*
X005556Y005058D01*
X005540Y005010D02*
X005474Y005010D01*
X005540Y004961D02*
X005121Y004961D01*
X005121Y004929D02*
X005071Y004929D01*
X004713Y004929D01*
X004713Y004916D01*
X004728Y004842D01*
X004757Y004772D01*
X004798Y004710D01*
X004852Y004656D01*
X004914Y004615D01*
X004984Y004586D01*
X005058Y004571D01*
X005071Y004571D01*
X005071Y004929D01*
X005071Y004979D01*
X004713Y004979D01*
X004713Y004991D01*
X004728Y005065D01*
X004757Y005135D01*
X004798Y005197D01*
X004815Y005214D01*
X004584Y005214D01*
X004584Y005128D01*
X004302Y005128D01*
X004302Y005078D01*
X004584Y005078D01*
X004584Y004941D01*
X004576Y004910D01*
X004587Y004904D01*
X004610Y004881D01*
X004626Y004852D01*
X004635Y004820D01*
X004635Y004683D01*
X004353Y004683D01*
X004353Y004633D01*
X004635Y004633D01*
X004635Y004508D01*
X005789Y004508D01*
X005789Y004622D01*
X005789Y004573D02*
X005145Y004573D01*
X005133Y004571D02*
X005207Y004586D01*
X005277Y004615D01*
X005353Y004670D02*
X005682Y004670D01*
X005633Y004719D02*
X005399Y004719D01*
X005431Y004767D02*
X005589Y004767D01*
X005569Y004816D02*
X005453Y004816D01*
X005468Y004864D02*
X005549Y004864D01*
X005540Y004913D02*
X005477Y004913D01*
X005121Y004913D02*
X005071Y004913D01*
X005071Y004961D02*
X004584Y004961D01*
X004576Y004913D02*
X004714Y004913D01*
X004723Y004864D02*
X004619Y004864D01*
X004635Y004816D02*
X004739Y004816D01*
X004760Y004767D02*
X004635Y004767D01*
X004635Y004719D02*
X004792Y004719D01*
X004838Y004670D02*
X004353Y004670D01*
X004635Y004622D02*
X004903Y004622D01*
X005046Y004573D02*
X004635Y004573D01*
X004635Y004525D02*
X005789Y004525D01*
X006017Y004398D02*
X003855Y004398D01*
X003855Y004658D01*
X003379Y004658D01*
X003379Y004457D01*
X003497Y004517D01*
X003379Y004658D02*
X003178Y004658D01*
X003547Y004913D02*
X002440Y004913D01*
X002172Y005058D02*
X001959Y005058D01*
X001959Y005010D02*
X002150Y005010D01*
X002148Y004961D02*
X001959Y004961D01*
X001959Y005107D02*
X002188Y005107D01*
X002188Y005155D02*
X001959Y005155D01*
X001929Y005204D02*
X002188Y005204D01*
X002646Y005301D02*
X002962Y005301D01*
X002936Y005252D02*
X002673Y005252D01*
X002673Y005204D02*
X002936Y005204D01*
X003394Y005301D02*
X003554Y005301D01*
X004302Y005107D02*
X004745Y005107D01*
X004726Y005058D02*
X004584Y005058D01*
X004584Y005010D02*
X004717Y005010D01*
X004770Y005155D02*
X004584Y005155D01*
X004584Y005204D02*
X004805Y005204D01*
X005071Y004864D02*
X005121Y004864D01*
X005121Y004816D02*
X005071Y004816D01*
X005071Y004767D02*
X005121Y004767D01*
X005121Y004719D02*
X005071Y004719D01*
X005071Y004670D02*
X005121Y004670D01*
X005121Y004622D02*
X005071Y004622D01*
X005071Y004573D02*
X005121Y004573D01*
X005121Y004571D02*
X005133Y004571D01*
X005121Y004571D02*
X005121Y004929D01*
X005888Y004282D02*
X003749Y004282D01*
X003765Y004234D02*
X005907Y004234D01*
X005203Y002827D02*
X005173Y002827D01*
X005147Y002779D02*
X005229Y002779D01*
X005328Y002730D02*
X004149Y002730D01*
X004197Y002779D02*
X004229Y002779D01*
X004403Y002587D02*
X003517Y002686D01*
X003457Y002585D02*
X003429Y002585D01*
X003713Y002294D02*
X002847Y002294D01*
X002847Y002245D02*
X003703Y002245D01*
X003703Y002197D02*
X002847Y002197D01*
X002847Y002148D02*
X003703Y002148D01*
X003703Y002100D02*
X002847Y002100D01*
X002847Y002051D02*
X003703Y002051D01*
X003703Y002003D02*
X002847Y002003D01*
X002847Y001954D02*
X003703Y001954D01*
X003703Y001906D02*
X002847Y001906D01*
X002847Y001857D02*
X003293Y001857D01*
X003245Y001809D02*
X002847Y001809D01*
X002847Y001760D02*
X003196Y001760D01*
X003148Y001712D02*
X002847Y001712D01*
X002847Y001663D02*
X003099Y001663D01*
X003051Y001615D02*
X002847Y001615D01*
X002847Y001566D02*
X003002Y001566D01*
X002954Y001518D02*
X002847Y001518D01*
X002847Y001469D02*
X002905Y001469D01*
X002857Y001421D02*
X002847Y001421D01*
X002737Y001308D02*
X002737Y002780D01*
X002495Y002730D02*
X002196Y002730D01*
X001274Y002633D02*
X000909Y002633D01*
X000909Y002585D02*
X001274Y002585D01*
X000924Y002682D02*
X000909Y002682D01*
X000920Y002730D02*
X000881Y002730D01*
X000920Y002779D02*
X000788Y002779D01*
X000788Y002827D02*
X000920Y002827D01*
X000678Y002977D02*
X001162Y002977D01*
X000765Y003284D02*
X000505Y003284D01*
X000505Y003020D01*
X000308Y003020D01*
X000308Y005009D01*
X000777Y005009D01*
X000777Y005135D01*
X000662Y005146D02*
X000643Y005146D01*
X000514Y005155D02*
X000454Y005155D01*
X000454Y005204D02*
X000514Y005204D01*
X000514Y005252D02*
X000454Y005252D01*
X000454Y005301D02*
X000514Y005301D01*
X000556Y005349D02*
X000454Y005349D01*
X000678Y002977D02*
X000678Y002485D01*
X001620Y001615D02*
X001791Y001615D01*
X001743Y001566D02*
X001669Y001566D01*
X001962Y001308D02*
X002737Y001308D01*
X003182Y001421D02*
X003267Y001421D01*
X003231Y001469D02*
X003703Y001469D01*
X003703Y001421D02*
X003491Y001421D01*
X003540Y001372D02*
X003703Y001372D01*
X003703Y001324D02*
X003588Y001324D01*
X003594Y001275D02*
X003703Y001275D01*
X003745Y001227D02*
X003594Y001227D01*
X003594Y001178D02*
X004261Y001178D01*
X004245Y001227D02*
X004131Y001227D01*
X004173Y001275D02*
X004203Y001275D01*
X004203Y001324D02*
X004173Y001324D01*
X004173Y001372D02*
X004203Y001372D01*
X004203Y001421D02*
X004173Y001421D01*
X004173Y001469D02*
X004203Y001469D01*
X004203Y001518D02*
X004173Y001518D01*
X004173Y001566D02*
X004203Y001566D01*
X004203Y001615D02*
X004173Y001615D01*
X004173Y001663D02*
X004203Y001663D01*
X004203Y001712D02*
X004173Y001712D01*
X004173Y001760D02*
X004203Y001760D01*
X004203Y001809D02*
X004173Y001809D01*
X004173Y001857D02*
X004203Y001857D01*
X004203Y001906D02*
X004173Y001906D01*
X004173Y001954D02*
X004203Y001954D01*
X004203Y002003D02*
X004173Y002003D01*
X004173Y002051D02*
X004203Y002051D01*
X004203Y002100D02*
X004173Y002100D01*
X004173Y002148D02*
X004203Y002148D01*
X004203Y002197D02*
X004173Y002197D01*
X004173Y002245D02*
X004203Y002245D01*
X004213Y002294D02*
X004163Y002294D01*
X004403Y002587D02*
X004403Y001776D01*
X004438Y001776D01*
X004673Y001760D02*
X004703Y001760D01*
X004703Y001712D02*
X004673Y001712D01*
X004673Y001663D02*
X004703Y001663D01*
X004703Y001615D02*
X004673Y001615D01*
X004673Y001566D02*
X004703Y001566D01*
X004703Y001518D02*
X004673Y001518D01*
X004673Y001469D02*
X004703Y001469D01*
X004703Y001421D02*
X004673Y001421D01*
X004673Y001372D02*
X004703Y001372D01*
X004703Y001324D02*
X004673Y001324D01*
X004371Y001170D02*
X004371Y000891D01*
X004148Y000887D02*
X004082Y000887D01*
X004082Y000839D02*
X004148Y000839D01*
X004148Y000790D02*
X004082Y000790D01*
X004082Y000936D02*
X004148Y000936D01*
X004148Y000984D02*
X004082Y000984D01*
X004082Y001033D02*
X004148Y001033D01*
X004148Y001081D02*
X004082Y001081D01*
X004055Y001130D02*
X004175Y001130D01*
X004371Y001170D02*
X006273Y001170D01*
X006273Y002548D01*
X005438Y002548D01*
X005328Y002682D02*
X004468Y002682D01*
X004513Y002391D02*
X006163Y002391D01*
X006163Y002342D02*
X004513Y002342D01*
X004663Y002294D02*
X004713Y002294D01*
X004703Y002245D02*
X004673Y002245D01*
X004673Y002197D02*
X004703Y002197D01*
X004703Y002148D02*
X004673Y002148D01*
X004673Y002100D02*
X004703Y002100D01*
X004703Y002051D02*
X004673Y002051D01*
X004673Y002003D02*
X004703Y002003D01*
X004703Y001954D02*
X004673Y001954D01*
X004673Y001906D02*
X004703Y001906D01*
X004703Y001857D02*
X004673Y001857D01*
X004673Y001809D02*
X004703Y001809D01*
X005173Y001809D02*
X005203Y001809D01*
X005203Y001857D02*
X005173Y001857D01*
X005173Y001906D02*
X005203Y001906D01*
X005203Y001954D02*
X005173Y001954D01*
X005173Y002003D02*
X005203Y002003D01*
X005203Y002051D02*
X005173Y002051D01*
X005173Y002100D02*
X005203Y002100D01*
X005203Y002148D02*
X005173Y002148D01*
X005173Y002197D02*
X005203Y002197D01*
X005203Y002245D02*
X005173Y002245D01*
X005163Y002294D02*
X005213Y002294D01*
X005663Y002294D02*
X005713Y002294D01*
X005703Y002245D02*
X005673Y002245D01*
X005673Y002197D02*
X005703Y002197D01*
X005703Y002148D02*
X005673Y002148D01*
X005673Y002100D02*
X005703Y002100D01*
X005703Y002051D02*
X005673Y002051D01*
X005673Y002003D02*
X005703Y002003D01*
X005703Y001954D02*
X005673Y001954D01*
X005673Y001906D02*
X005703Y001906D01*
X005703Y001857D02*
X005673Y001857D01*
X005673Y001809D02*
X005703Y001809D01*
X005703Y001760D02*
X005673Y001760D01*
X005673Y001712D02*
X005703Y001712D01*
X005703Y001663D02*
X005673Y001663D01*
X005673Y001615D02*
X005703Y001615D01*
X005703Y001566D02*
X005673Y001566D01*
X005673Y001518D02*
X005703Y001518D01*
X005703Y001469D02*
X005673Y001469D01*
X005673Y001421D02*
X005703Y001421D01*
X005703Y001372D02*
X005673Y001372D01*
X005673Y001324D02*
X005703Y001324D01*
X005203Y001324D02*
X005173Y001324D01*
X005173Y001372D02*
X005203Y001372D01*
X005203Y001421D02*
X005173Y001421D01*
X005173Y001469D02*
X005203Y001469D01*
X005203Y001518D02*
X005173Y001518D01*
X005173Y001566D02*
X005203Y001566D01*
X005203Y001615D02*
X005173Y001615D01*
X005173Y001663D02*
X005203Y001663D01*
X005203Y001712D02*
X005173Y001712D01*
X005173Y001760D02*
X005203Y001760D01*
X003859Y000891D02*
X003859Y000871D01*
X003403Y000871D01*
X003395Y001229D01*
X003379Y001229D01*
X003218Y001372D02*
X003200Y001372D01*
X003279Y001518D02*
X003703Y001518D01*
X003703Y001566D02*
X003328Y001566D01*
X003376Y001615D02*
X003703Y001615D01*
X003663Y001130D02*
X003584Y001130D01*
X002955Y000846D02*
X002955Y000765D01*
X002905Y000765D01*
X002905Y000846D01*
X002955Y000846D01*
X002955Y000839D02*
X002905Y000839D01*
X002905Y000790D02*
X002955Y000790D01*
X003701Y004331D02*
X003767Y004331D01*
X003745Y004379D02*
X003664Y004379D01*
D20*
X003497Y004517D03*
X002788Y004457D03*
X002493Y004398D03*
X001430Y005442D03*
X001253Y004221D03*
X000958Y004261D03*
X000662Y004162D03*
X000505Y003020D03*
X001962Y001308D03*
X002375Y000835D03*
X003379Y001229D03*
X003162Y002154D03*
X006017Y004457D03*
D21*
X004836Y002745D02*
X004166Y002784D01*
X004166Y002981D01*
X003950Y003040D01*
X003950Y003296D01*
X003938Y003312D01*
X003159Y003139D02*
X003123Y003119D01*
X003103Y003139D01*
X002769Y003139D01*
X002749Y003158D01*
X002737Y003174D01*
X002769Y003532D02*
X002749Y003552D01*
X002737Y003568D01*
X002729Y003591D01*
X002159Y003591D01*
X001863Y003887D01*
X001863Y004044D01*
X001851Y004060D01*
X001844Y004064D01*
X001844Y004438D01*
X001824Y004438D01*
X001844Y004438D02*
X001844Y005127D01*
X000781Y005127D01*
X000777Y005135D01*
X001411Y004772D02*
X001509Y004772D01*
X001411Y004772D02*
X001411Y004339D01*
X001411Y004162D01*
X001489Y004162D01*
X001489Y004143D01*
X001391Y004143D01*
X001391Y004123D01*
X001489Y004123D01*
X001489Y004103D01*
X001351Y004103D01*
X001351Y004005D01*
X001411Y003946D01*
X001430Y003946D01*
X001458Y004060D01*
X001458Y002485D02*
X001450Y002450D01*
X001453Y002450D01*
X001650Y002410D02*
X001666Y002410D01*
X001655Y002485D01*
X001351Y001721D02*
X001666Y001406D01*
X001706Y001406D01*
X001725Y001387D01*
X001725Y001072D01*
X002670Y001072D01*
X002926Y001328D01*
X003025Y001229D01*
X002926Y001328D02*
X003359Y001761D01*
X003379Y001780D01*
X003359Y001761D02*
X003930Y001761D01*
X003938Y001776D01*
X004836Y002745D02*
X004954Y002627D01*
X002926Y000894D02*
X002930Y000871D01*
X002926Y000894D02*
X002905Y000896D01*
X002434Y001544D02*
X001883Y001544D01*
X001725Y001387D01*
X002434Y001544D02*
X002434Y002469D01*
X002442Y002485D01*
D22*
X001351Y001721D03*
X003025Y001229D03*
X004954Y002627D03*
X001824Y004438D03*
X001509Y004772D03*
M02*
