G75*
%MOIN*%
%OFA0B0*%
%FSLAX24Y24*%
%IPPOS*%
%LPD*%
%AMOC8*
5,1,8,0,0,1.08239X$1,22.5*
%
%ADD10C,0.0000*%
%ADD11C,0.0010*%
%ADD12C,0.0020*%
%ADD13C,0.0080*%
%ADD14C,0.0050*%
%ADD15C,0.0040*%
%ADD16R,0.0118X0.0118*%
%ADD17R,0.0108X0.0138*%
D10*
X000229Y000540D02*
X000229Y005796D01*
X006411Y005796D01*
X006411Y000540D01*
X000229Y000540D01*
D11*
X000471Y001134D02*
X000571Y001134D01*
X000618Y001134D02*
X000718Y001134D01*
X000765Y001134D02*
X000840Y001134D01*
X000865Y001159D01*
X000865Y001259D01*
X000840Y001284D01*
X000765Y001284D01*
X000765Y001134D01*
X000668Y001209D02*
X000618Y001209D01*
X000618Y001284D02*
X000618Y001134D01*
X000618Y001284D02*
X000718Y001284D01*
X000913Y001259D02*
X000938Y001284D01*
X000988Y001284D01*
X001013Y001259D01*
X001013Y001234D01*
X000913Y001134D01*
X001013Y001134D01*
X001198Y001198D02*
X001198Y001348D01*
X001273Y001348D01*
X001298Y001323D01*
X001298Y001273D01*
X001273Y001248D01*
X001198Y001248D01*
X001248Y001248D02*
X001298Y001198D01*
X001345Y001273D02*
X001445Y001273D01*
X001420Y001198D02*
X001420Y001348D01*
X001345Y001273D01*
X000471Y001284D02*
X000471Y001134D01*
X000488Y002430D02*
X000488Y002505D01*
X000513Y002530D01*
X000563Y002530D01*
X000588Y002505D01*
X000588Y002430D01*
X000588Y002480D02*
X000638Y002530D01*
X000613Y002577D02*
X000638Y002602D01*
X000638Y002652D01*
X000613Y002677D01*
X000588Y002677D01*
X000563Y002652D01*
X000563Y002627D01*
X000563Y002652D02*
X000538Y002677D01*
X000513Y002677D01*
X000488Y002652D01*
X000488Y002602D01*
X000513Y002577D01*
X000488Y002430D02*
X000638Y002430D01*
X001000Y003869D02*
X001050Y003869D01*
X001075Y003894D01*
X001075Y004020D01*
X001123Y003969D02*
X001173Y004020D01*
X001173Y003869D01*
X001123Y003869D02*
X001223Y003869D01*
X001000Y003869D02*
X000975Y003894D01*
X000975Y004020D01*
X000599Y004644D02*
X000499Y004644D01*
X000474Y004669D01*
X000474Y004719D01*
X000499Y004744D01*
X000549Y004791D02*
X000549Y004891D01*
X000599Y004938D02*
X000499Y004938D01*
X000474Y004963D01*
X000474Y005013D01*
X000499Y005038D01*
X000599Y004938D01*
X000624Y004963D01*
X000624Y005013D01*
X000599Y005038D01*
X000499Y005038D01*
X000524Y005086D02*
X000474Y005136D01*
X000624Y005136D01*
X000624Y005086D02*
X000624Y005186D01*
X000624Y004866D02*
X000474Y004866D01*
X000549Y004791D01*
X000599Y004744D02*
X000624Y004719D01*
X000624Y004669D01*
X000599Y004644D01*
X001476Y005322D02*
X001501Y005297D01*
X001551Y005297D01*
X001576Y005322D01*
X001623Y005297D02*
X001723Y005397D01*
X001723Y005422D01*
X001698Y005447D01*
X001648Y005447D01*
X001623Y005422D01*
X001576Y005422D02*
X001551Y005447D01*
X001501Y005447D01*
X001476Y005422D01*
X001476Y005322D01*
X001623Y005297D02*
X001723Y005297D01*
X001770Y005322D02*
X001795Y005297D01*
X001846Y005297D01*
X001871Y005322D01*
X001871Y005347D01*
X001846Y005372D01*
X001821Y005372D01*
X001846Y005372D02*
X001871Y005397D01*
X001871Y005422D01*
X001846Y005447D01*
X001795Y005447D01*
X001770Y005422D01*
X001918Y005397D02*
X001968Y005447D01*
X001968Y005297D01*
X001918Y005297D02*
X002018Y005297D01*
X001853Y005608D02*
X001752Y005608D01*
X001802Y005608D02*
X001802Y005758D01*
X001752Y005708D01*
X001705Y005733D02*
X001680Y005758D01*
X001605Y005758D01*
X001605Y005608D01*
X001680Y005608D01*
X001705Y005633D01*
X001705Y005733D01*
X001558Y005758D02*
X001458Y005758D01*
X001458Y005608D01*
X001558Y005608D01*
X001508Y005683D02*
X001458Y005683D01*
X001411Y005608D02*
X001310Y005608D01*
X001310Y005758D01*
X002727Y005323D02*
X002827Y005173D01*
X002874Y005173D02*
X002975Y005173D01*
X002925Y005173D02*
X002925Y005323D01*
X002874Y005273D01*
X002827Y005323D02*
X002727Y005173D01*
X003848Y004455D02*
X003848Y004304D01*
X003848Y004354D02*
X003923Y004354D01*
X003948Y004380D01*
X003948Y004430D01*
X003923Y004455D01*
X003848Y004455D01*
X003898Y004354D02*
X003948Y004304D01*
X003995Y004304D02*
X004070Y004304D01*
X004095Y004329D01*
X004095Y004354D01*
X004070Y004380D01*
X003995Y004380D01*
X003995Y004455D02*
X003995Y004304D01*
X004070Y004380D02*
X004095Y004405D01*
X004095Y004430D01*
X004070Y004455D01*
X003995Y004455D01*
X004143Y004455D02*
X004193Y004455D01*
X004168Y004455D02*
X004168Y004304D01*
X004143Y004304D02*
X004193Y004304D01*
X004241Y004304D02*
X004241Y004405D01*
X004291Y004455D01*
X004341Y004405D01*
X004341Y004304D01*
X004388Y004329D02*
X004413Y004304D01*
X004463Y004304D01*
X004488Y004329D01*
X004488Y004354D01*
X004463Y004380D01*
X004413Y004380D01*
X004388Y004405D01*
X004388Y004430D01*
X004413Y004455D01*
X004463Y004455D01*
X004488Y004430D01*
X004341Y004380D02*
X004241Y004380D01*
X004212Y005338D02*
X004313Y005439D01*
X004313Y005464D01*
X004288Y005489D01*
X004237Y005489D01*
X004212Y005464D01*
X004165Y005464D02*
X004140Y005489D01*
X004090Y005489D01*
X004065Y005464D01*
X004065Y005363D01*
X004090Y005338D01*
X004140Y005338D01*
X004165Y005363D01*
X004212Y005338D02*
X004313Y005338D01*
X004360Y005338D02*
X004460Y005439D01*
X004460Y005464D01*
X004435Y005489D01*
X004385Y005489D01*
X004360Y005464D01*
X004360Y005338D02*
X004460Y005338D01*
X004507Y005338D02*
X004607Y005338D01*
X004557Y005338D02*
X004557Y005489D01*
X004507Y005439D01*
X004911Y005430D02*
X004936Y005405D01*
X004986Y005405D01*
X005011Y005430D01*
X005011Y005480D01*
X004961Y005480D01*
X005011Y005530D02*
X004986Y005555D01*
X004936Y005555D01*
X004911Y005530D01*
X004911Y005430D01*
X005058Y005405D02*
X005058Y005555D01*
X005158Y005405D01*
X005158Y005555D01*
X005205Y005555D02*
X005280Y005555D01*
X005305Y005530D01*
X005305Y005430D01*
X005280Y005405D01*
X005205Y005405D01*
X005205Y005555D01*
X005669Y005535D02*
X005669Y005385D01*
X005744Y005385D01*
X005769Y005410D01*
X005769Y005435D01*
X005744Y005460D01*
X005669Y005460D01*
X005744Y005460D02*
X005769Y005485D01*
X005769Y005510D01*
X005744Y005535D01*
X005669Y005535D01*
X005816Y005485D02*
X005816Y005385D01*
X005816Y005460D02*
X005916Y005460D01*
X005916Y005485D02*
X005916Y005385D01*
X006013Y005385D02*
X006013Y005535D01*
X005963Y005535D02*
X006063Y005535D01*
X006111Y005460D02*
X006211Y005460D01*
X006161Y005510D02*
X006161Y005410D01*
X005916Y005485D02*
X005866Y005535D01*
X005816Y005485D01*
X005817Y002776D02*
X005767Y002776D01*
X005742Y002751D01*
X005742Y002651D01*
X005767Y002626D01*
X005817Y002626D01*
X005842Y002651D01*
X005890Y002651D02*
X005915Y002626D01*
X005965Y002626D01*
X005990Y002651D01*
X005990Y002676D01*
X005965Y002701D01*
X005940Y002701D01*
X005965Y002701D02*
X005990Y002726D01*
X005990Y002751D01*
X005965Y002776D01*
X005915Y002776D01*
X005890Y002751D01*
X005842Y002751D02*
X005817Y002776D01*
X006037Y002751D02*
X006062Y002776D01*
X006112Y002776D01*
X006137Y002751D01*
X006137Y002726D01*
X006112Y002701D01*
X006137Y002676D01*
X006137Y002651D01*
X006112Y002626D01*
X006062Y002626D01*
X006037Y002651D01*
X006087Y002701D02*
X006112Y002701D01*
X006184Y002726D02*
X006234Y002776D01*
X006234Y002626D01*
X006184Y002626D02*
X006284Y002626D01*
X004927Y000902D02*
X004927Y000752D01*
X004877Y000752D02*
X004977Y000752D01*
X004877Y000852D02*
X004927Y000902D01*
X004830Y000877D02*
X004805Y000902D01*
X004755Y000902D01*
X004730Y000877D01*
X004683Y000877D02*
X004683Y000852D01*
X004658Y000827D01*
X004683Y000802D01*
X004683Y000777D01*
X004658Y000752D01*
X004608Y000752D01*
X004583Y000777D01*
X004535Y000777D02*
X004510Y000752D01*
X004460Y000752D01*
X004435Y000777D01*
X004435Y000877D01*
X004460Y000902D01*
X004510Y000902D01*
X004535Y000877D01*
X004583Y000877D02*
X004608Y000902D01*
X004658Y000902D01*
X004683Y000877D01*
X004658Y000827D02*
X004633Y000827D01*
X004730Y000752D02*
X004830Y000852D01*
X004830Y000877D01*
X004830Y000752D02*
X004730Y000752D01*
X004553Y001279D02*
X004453Y001279D01*
X004553Y001379D01*
X004553Y001404D01*
X004528Y001429D01*
X004478Y001429D01*
X004453Y001404D01*
X004406Y001429D02*
X004306Y001279D01*
X004406Y001279D02*
X004306Y001429D01*
D12*
X004876Y003779D02*
X004936Y003779D01*
X004966Y003809D01*
X004966Y003869D01*
X004906Y003869D01*
X004966Y003929D02*
X004936Y003959D01*
X004876Y003959D01*
X004846Y003929D01*
X004846Y003809D01*
X004876Y003779D01*
X005030Y003779D02*
X005091Y003779D01*
X005061Y003779D02*
X005061Y003899D01*
X005030Y003899D01*
X005061Y003959D02*
X005061Y003989D01*
X005061Y004074D02*
X005121Y004074D01*
X005151Y004104D01*
X005061Y004074D02*
X005030Y004104D01*
X005030Y004224D01*
X005061Y004255D01*
X005121Y004255D01*
X005151Y004224D01*
X004966Y004255D02*
X004966Y004104D01*
X004936Y004074D01*
X004876Y004074D01*
X004846Y004104D01*
X004846Y004255D01*
X005154Y003899D02*
X005244Y003899D01*
X005274Y003869D01*
X005274Y003779D01*
X005338Y003809D02*
X005368Y003839D01*
X005459Y003839D01*
X005459Y003869D02*
X005459Y003779D01*
X005368Y003779D01*
X005338Y003809D01*
X005368Y003899D02*
X005429Y003899D01*
X005459Y003869D01*
X005523Y003869D02*
X005644Y003869D01*
X005708Y003809D02*
X005738Y003809D01*
X005738Y003779D01*
X005708Y003779D01*
X005708Y003809D01*
X005800Y003809D02*
X005921Y003929D01*
X005921Y003809D01*
X005891Y003779D01*
X005830Y003779D01*
X005800Y003809D01*
X005800Y003929D01*
X005830Y003959D01*
X005891Y003959D01*
X005921Y003929D01*
X005985Y003869D02*
X006105Y003869D01*
X006170Y003869D02*
X006260Y003869D01*
X006290Y003839D01*
X006290Y003809D01*
X006260Y003779D01*
X006170Y003779D01*
X006170Y003959D01*
X006260Y003959D01*
X006290Y003929D01*
X006290Y003899D01*
X006260Y003869D01*
X006354Y003959D02*
X006475Y003959D01*
X006415Y003959D02*
X006415Y003779D01*
X006630Y004014D02*
X006660Y004014D01*
X006690Y004044D01*
X006690Y004194D01*
X006570Y004194D02*
X006570Y004104D01*
X006600Y004074D01*
X006690Y004074D01*
X006506Y004134D02*
X006385Y004134D01*
X006385Y004104D02*
X006385Y004164D01*
X006415Y004194D01*
X006476Y004194D01*
X006506Y004164D01*
X006506Y004134D01*
X006476Y004074D02*
X006415Y004074D01*
X006385Y004104D01*
X006322Y004074D02*
X006262Y004074D01*
X006292Y004074D02*
X006292Y004255D01*
X006262Y004255D01*
X006198Y004164D02*
X006198Y004134D01*
X006077Y004134D01*
X006077Y004104D02*
X006077Y004164D01*
X006107Y004194D01*
X006168Y004194D01*
X006198Y004164D01*
X006168Y004074D02*
X006107Y004074D01*
X006077Y004104D01*
X006014Y004074D02*
X005923Y004134D01*
X006014Y004194D01*
X005923Y004255D02*
X005923Y004074D01*
X005860Y004194D02*
X005830Y004194D01*
X005769Y004134D01*
X005769Y004074D02*
X005769Y004194D01*
X005705Y004164D02*
X005705Y004134D01*
X005585Y004134D01*
X005585Y004104D02*
X005585Y004164D01*
X005615Y004194D01*
X005675Y004194D01*
X005705Y004164D01*
X005675Y004074D02*
X005615Y004074D01*
X005585Y004104D01*
X005520Y004104D02*
X005520Y004134D01*
X005490Y004164D01*
X005400Y004164D01*
X005400Y004074D02*
X005490Y004074D01*
X005520Y004104D01*
X005490Y004164D02*
X005520Y004194D01*
X005520Y004224D01*
X005490Y004255D01*
X005400Y004255D01*
X005400Y004074D01*
X005523Y003869D02*
X005613Y003959D01*
X005613Y003779D01*
X005154Y003779D02*
X005154Y003899D01*
D13*
X005329Y003642D02*
X005729Y003642D01*
X005729Y002942D02*
X005329Y002942D01*
X003672Y004053D02*
X003672Y001712D01*
X001330Y001712D01*
X001330Y004053D01*
X003672Y004053D01*
X001369Y004053D02*
X001330Y004015D01*
D14*
X001753Y004024D02*
X001359Y003513D01*
X002269Y004816D02*
X002269Y005406D01*
X003529Y005406D01*
X003529Y004816D01*
X002269Y004816D01*
X004702Y004560D02*
X006277Y004560D01*
X006277Y005347D01*
X004702Y005347D01*
X004702Y004560D01*
X006387Y002241D02*
X006288Y002143D01*
X006387Y002044D01*
X006092Y002143D02*
X006092Y001158D01*
X004832Y001158D01*
X004832Y002143D01*
X006092Y002143D01*
X005855Y001749D02*
X005855Y001670D01*
X005639Y001670D01*
X005599Y001591D02*
X005599Y001749D01*
X005501Y001769D02*
X005501Y001572D01*
X005383Y001572D01*
X005383Y001769D01*
X005501Y001769D01*
X005304Y001749D02*
X005304Y001572D01*
X005285Y001650D02*
X005048Y001650D01*
X005048Y001552D01*
X005048Y001650D02*
X005029Y001650D01*
D15*
X000962Y001017D02*
X000489Y001017D01*
X000489Y000741D02*
X000962Y000741D01*
X000974Y005383D02*
X000501Y005383D01*
X000501Y005658D02*
X000974Y005658D01*
D16*
X000659Y005520D03*
X000647Y000879D03*
D17*
X004669Y002883D03*
M02*
