G75*
%MOIN*%
%OFA0B0*%
%FSLAX24Y24*%
%IPPOS*%
%LPD*%
%AMOC8*
5,1,8,0,0,1.08239X$1,22.5*
%
%ADD10R,0.0198X0.0395*%
%ADD11R,0.0395X0.0198*%
%ADD12R,0.0434X0.0356*%
%ADD13R,0.0371X0.0444*%
%ADD14R,0.0379X0.1025*%
%ADD15R,0.0356X0.0434*%
%ADD16R,0.0444X0.0371*%
%ADD17R,0.0395X0.0218*%
%ADD18C,0.0595*%
%ADD19C,0.0340*%
%ADD20C,0.0360*%
D10*
X001458Y002485D03*
X001655Y002485D03*
X001851Y002485D03*
X002048Y002485D03*
X002245Y002485D03*
X002442Y002485D03*
X002442Y004060D03*
X002245Y004060D03*
X002048Y004060D03*
X001851Y004060D03*
X001655Y004060D03*
X001458Y004060D03*
D11*
X001162Y003765D03*
X001162Y003568D03*
X001162Y003371D03*
X001162Y003174D03*
X001162Y002977D03*
X001162Y002780D03*
X002737Y002780D03*
X002737Y002977D03*
X002737Y003174D03*
X002737Y003371D03*
X002737Y003568D03*
X002737Y003765D03*
D12*
X000765Y003796D03*
X000765Y003284D03*
X000777Y004623D03*
X000777Y005135D03*
D13*
X003159Y003139D03*
X003159Y002666D03*
X000678Y002485D03*
X000678Y002013D03*
D14*
X003938Y001776D03*
X004438Y001776D03*
X004938Y001776D03*
X005438Y001776D03*
X005938Y001776D03*
X005938Y003312D03*
X005438Y003312D03*
X004938Y003312D03*
X004438Y003312D03*
X003938Y003312D03*
D15*
X003859Y000891D03*
X004371Y000891D03*
D16*
X003403Y000871D03*
X002930Y000871D03*
X003855Y004658D03*
X003804Y005103D03*
X004277Y005103D03*
X004328Y004658D03*
D17*
X003178Y004658D03*
X003178Y005170D03*
X002430Y005170D03*
X002430Y004914D03*
X002430Y004658D03*
D18*
X005096Y004954D03*
X005883Y004954D03*
D19*
X006017Y004457D03*
X003497Y004517D03*
X002788Y004457D03*
X002493Y004398D03*
X001430Y005442D03*
X001253Y004221D03*
X000958Y004261D03*
X000662Y004162D03*
X000505Y003020D03*
X001962Y001308D03*
X002375Y000835D03*
X003379Y001229D03*
X003162Y002154D03*
D20*
X001351Y001721D03*
X003025Y001229D03*
X004954Y002627D03*
X001824Y004438D03*
X001509Y004772D03*
M02*
