G75*
G70*
%OFA0B0*%
%FSLAX24Y24*%
%IPPOS*%
%LPD*%
%AMOC8*
5,1,8,0,0,1.08239X$1,22.5*
%
%ADD10R,0.0512X0.0315*%
%ADD11C,0.0059*%
%ADD12R,0.1772X0.1772*%
%ADD13R,0.0291X0.0364*%
%ADD14R,0.0364X0.0291*%
%ADD15R,0.0197X0.0315*%
%ADD16R,0.0138X0.0138*%
%ADD17R,0.0433X0.0748*%
%ADD18R,0.0571X0.0413*%
%ADD19R,0.0138X0.0394*%
%ADD20R,0.0354X0.0276*%
%ADD21R,0.0276X0.0354*%
%ADD22R,0.0394X0.0669*%
%ADD23C,0.0515*%
%ADD24C,0.0050*%
%ADD25C,0.0260*%
%ADD26C,0.0060*%
%ADD27C,0.0280*%
D10*
X002454Y001229D03*
D11*
X002433Y001564D02*
X002373Y001564D01*
X002373Y001840D01*
X002433Y001840D01*
X002433Y001564D01*
X002433Y001622D02*
X002373Y001622D01*
X002373Y001680D02*
X002433Y001680D01*
X002433Y001738D02*
X002373Y001738D01*
X002373Y001796D02*
X002433Y001796D01*
X002569Y001564D02*
X002629Y001564D01*
X002569Y001564D02*
X002569Y001840D01*
X002629Y001840D01*
X002629Y001564D01*
X002629Y001622D02*
X002569Y001622D01*
X002569Y001680D02*
X002629Y001680D01*
X002629Y001738D02*
X002569Y001738D01*
X002569Y001796D02*
X002629Y001796D01*
X002766Y001564D02*
X002826Y001564D01*
X002766Y001564D02*
X002766Y001840D01*
X002826Y001840D01*
X002826Y001564D01*
X002826Y001622D02*
X002766Y001622D01*
X002766Y001680D02*
X002826Y001680D01*
X002826Y001738D02*
X002766Y001738D01*
X002766Y001796D02*
X002826Y001796D01*
X002963Y001564D02*
X003023Y001564D01*
X002963Y001564D02*
X002963Y001840D01*
X003023Y001840D01*
X003023Y001564D01*
X003023Y001622D02*
X002963Y001622D01*
X002963Y001680D02*
X003023Y001680D01*
X003023Y001738D02*
X002963Y001738D01*
X002963Y001796D02*
X003023Y001796D01*
X003160Y001564D02*
X003220Y001564D01*
X003160Y001564D02*
X003160Y001840D01*
X003220Y001840D01*
X003220Y001564D01*
X003220Y001622D02*
X003160Y001622D01*
X003160Y001680D02*
X003220Y001680D01*
X003220Y001738D02*
X003160Y001738D01*
X003160Y001796D02*
X003220Y001796D01*
X003357Y001564D02*
X003417Y001564D01*
X003357Y001564D02*
X003357Y001840D01*
X003417Y001840D01*
X003417Y001564D01*
X003417Y001622D02*
X003357Y001622D01*
X003357Y001680D02*
X003417Y001680D01*
X003417Y001738D02*
X003357Y001738D01*
X003357Y001796D02*
X003417Y001796D01*
X003544Y001967D02*
X003820Y001967D01*
X003544Y001967D02*
X003544Y002027D01*
X003820Y002027D01*
X003820Y001967D01*
X003820Y002025D02*
X003544Y002025D01*
X003544Y002164D02*
X003820Y002164D01*
X003544Y002164D02*
X003544Y002224D01*
X003820Y002224D01*
X003820Y002164D01*
X003820Y002222D02*
X003544Y002222D01*
X003544Y002361D02*
X003820Y002361D01*
X003544Y002361D02*
X003544Y002421D01*
X003820Y002421D01*
X003820Y002361D01*
X003820Y002419D02*
X003544Y002419D01*
X003544Y002557D02*
X003820Y002557D01*
X003544Y002557D02*
X003544Y002617D01*
X003820Y002617D01*
X003820Y002557D01*
X003820Y002615D02*
X003544Y002615D01*
X003544Y002754D02*
X003820Y002754D01*
X003544Y002754D02*
X003544Y002814D01*
X003820Y002814D01*
X003820Y002754D01*
X003820Y002812D02*
X003544Y002812D01*
X003544Y002951D02*
X003820Y002951D01*
X003544Y002951D02*
X003544Y003011D01*
X003820Y003011D01*
X003820Y002951D01*
X003820Y003009D02*
X003544Y003009D01*
X003544Y003148D02*
X003820Y003148D01*
X003544Y003148D02*
X003544Y003208D01*
X003820Y003208D01*
X003820Y003148D01*
X003820Y003206D02*
X003544Y003206D01*
X003544Y003345D02*
X003820Y003345D01*
X003544Y003345D02*
X003544Y003405D01*
X003820Y003405D01*
X003820Y003345D01*
X003820Y003403D02*
X003544Y003403D01*
X003544Y003542D02*
X003820Y003542D01*
X003544Y003542D02*
X003544Y003602D01*
X003820Y003602D01*
X003820Y003542D01*
X003820Y003600D02*
X003544Y003600D01*
X003544Y003739D02*
X003820Y003739D01*
X003544Y003739D02*
X003544Y003799D01*
X003820Y003799D01*
X003820Y003739D01*
X003820Y003797D02*
X003544Y003797D01*
X003417Y003926D02*
X003357Y003926D01*
X003357Y004202D01*
X003417Y004202D01*
X003417Y003926D01*
X003417Y003984D02*
X003357Y003984D01*
X003357Y004042D02*
X003417Y004042D01*
X003417Y004100D02*
X003357Y004100D01*
X003357Y004158D02*
X003417Y004158D01*
X003220Y003926D02*
X003160Y003926D01*
X003160Y004202D01*
X003220Y004202D01*
X003220Y003926D01*
X003220Y003984D02*
X003160Y003984D01*
X003160Y004042D02*
X003220Y004042D01*
X003220Y004100D02*
X003160Y004100D01*
X003160Y004158D02*
X003220Y004158D01*
X003023Y003926D02*
X002963Y003926D01*
X002963Y004202D01*
X003023Y004202D01*
X003023Y003926D01*
X003023Y003984D02*
X002963Y003984D01*
X002963Y004042D02*
X003023Y004042D01*
X003023Y004100D02*
X002963Y004100D01*
X002963Y004158D02*
X003023Y004158D01*
X002826Y003926D02*
X002766Y003926D01*
X002766Y004202D01*
X002826Y004202D01*
X002826Y003926D01*
X002826Y003984D02*
X002766Y003984D01*
X002766Y004042D02*
X002826Y004042D01*
X002826Y004100D02*
X002766Y004100D01*
X002766Y004158D02*
X002826Y004158D01*
X002629Y003926D02*
X002569Y003926D01*
X002569Y004202D01*
X002629Y004202D01*
X002629Y003926D01*
X002629Y003984D02*
X002569Y003984D01*
X002569Y004042D02*
X002629Y004042D01*
X002629Y004100D02*
X002569Y004100D01*
X002569Y004158D02*
X002629Y004158D01*
X002433Y003926D02*
X002373Y003926D01*
X002373Y004202D01*
X002433Y004202D01*
X002433Y003926D01*
X002433Y003984D02*
X002373Y003984D01*
X002373Y004042D02*
X002433Y004042D01*
X002433Y004100D02*
X002373Y004100D01*
X002373Y004158D02*
X002433Y004158D01*
X002236Y003926D02*
X002176Y003926D01*
X002176Y004202D01*
X002236Y004202D01*
X002236Y003926D01*
X002236Y003984D02*
X002176Y003984D01*
X002176Y004042D02*
X002236Y004042D01*
X002236Y004100D02*
X002176Y004100D01*
X002176Y004158D02*
X002236Y004158D01*
X002039Y003926D02*
X001979Y003926D01*
X001979Y004202D01*
X002039Y004202D01*
X002039Y003926D01*
X002039Y003984D02*
X001979Y003984D01*
X001979Y004042D02*
X002039Y004042D01*
X002039Y004100D02*
X001979Y004100D01*
X001979Y004158D02*
X002039Y004158D01*
X001842Y003926D02*
X001782Y003926D01*
X001782Y004202D01*
X001842Y004202D01*
X001842Y003926D01*
X001842Y003984D02*
X001782Y003984D01*
X001782Y004042D02*
X001842Y004042D01*
X001842Y004100D02*
X001782Y004100D01*
X001782Y004158D02*
X001842Y004158D01*
X001645Y003926D02*
X001585Y003926D01*
X001585Y004202D01*
X001645Y004202D01*
X001645Y003926D01*
X001645Y003984D02*
X001585Y003984D01*
X001585Y004042D02*
X001645Y004042D01*
X001645Y004100D02*
X001585Y004100D01*
X001585Y004158D02*
X001645Y004158D01*
X001458Y003739D02*
X001182Y003739D01*
X001182Y003799D01*
X001458Y003799D01*
X001458Y003739D01*
X001458Y003797D02*
X001182Y003797D01*
X001182Y003542D02*
X001458Y003542D01*
X001182Y003542D02*
X001182Y003602D01*
X001458Y003602D01*
X001458Y003542D01*
X001458Y003600D02*
X001182Y003600D01*
X001182Y003345D02*
X001458Y003345D01*
X001182Y003345D02*
X001182Y003405D01*
X001458Y003405D01*
X001458Y003345D01*
X001458Y003403D02*
X001182Y003403D01*
X001182Y003148D02*
X001458Y003148D01*
X001182Y003148D02*
X001182Y003208D01*
X001458Y003208D01*
X001458Y003148D01*
X001458Y003206D02*
X001182Y003206D01*
X001182Y002951D02*
X001458Y002951D01*
X001182Y002951D02*
X001182Y003011D01*
X001458Y003011D01*
X001458Y002951D01*
X001458Y003009D02*
X001182Y003009D01*
X001182Y002754D02*
X001458Y002754D01*
X001182Y002754D02*
X001182Y002814D01*
X001458Y002814D01*
X001458Y002754D01*
X001458Y002812D02*
X001182Y002812D01*
X001182Y002557D02*
X001458Y002557D01*
X001182Y002557D02*
X001182Y002617D01*
X001458Y002617D01*
X001458Y002557D01*
X001458Y002615D02*
X001182Y002615D01*
X001182Y002361D02*
X001458Y002361D01*
X001182Y002361D02*
X001182Y002421D01*
X001458Y002421D01*
X001458Y002361D01*
X001458Y002419D02*
X001182Y002419D01*
X001182Y002164D02*
X001458Y002164D01*
X001182Y002164D02*
X001182Y002224D01*
X001458Y002224D01*
X001458Y002164D01*
X001458Y002222D02*
X001182Y002222D01*
X001182Y001967D02*
X001458Y001967D01*
X001182Y001967D02*
X001182Y002027D01*
X001458Y002027D01*
X001458Y001967D01*
X001458Y002025D02*
X001182Y002025D01*
X001585Y001564D02*
X001645Y001564D01*
X001585Y001564D02*
X001585Y001840D01*
X001645Y001840D01*
X001645Y001564D01*
X001645Y001622D02*
X001585Y001622D01*
X001585Y001680D02*
X001645Y001680D01*
X001645Y001738D02*
X001585Y001738D01*
X001585Y001796D02*
X001645Y001796D01*
X001782Y001564D02*
X001842Y001564D01*
X001782Y001564D02*
X001782Y001840D01*
X001842Y001840D01*
X001842Y001564D01*
X001842Y001622D02*
X001782Y001622D01*
X001782Y001680D02*
X001842Y001680D01*
X001842Y001738D02*
X001782Y001738D01*
X001782Y001796D02*
X001842Y001796D01*
X001979Y001564D02*
X002039Y001564D01*
X001979Y001564D02*
X001979Y001840D01*
X002039Y001840D01*
X002039Y001564D01*
X002039Y001622D02*
X001979Y001622D01*
X001979Y001680D02*
X002039Y001680D01*
X002039Y001738D02*
X001979Y001738D01*
X001979Y001796D02*
X002039Y001796D01*
X002176Y001564D02*
X002236Y001564D01*
X002176Y001564D02*
X002176Y001840D01*
X002236Y001840D01*
X002236Y001564D01*
X002236Y001622D02*
X002176Y001622D01*
X002176Y001680D02*
X002236Y001680D01*
X002236Y001738D02*
X002176Y001738D01*
X002176Y001796D02*
X002236Y001796D01*
D12*
X002501Y002883D03*
D13*
X000816Y004658D03*
X000816Y005131D03*
D14*
X001312Y005127D03*
X001785Y005127D03*
X003922Y005146D03*
X004395Y005146D03*
X005560Y002454D03*
X006033Y002454D03*
X005670Y000855D03*
X005198Y000855D03*
D15*
X001070Y000879D03*
X000381Y000879D03*
X000393Y005520D03*
X001082Y005520D03*
D16*
X000934Y005520D03*
X000540Y005520D03*
X000529Y000879D03*
X000922Y000879D03*
D17*
X002407Y005111D03*
X003391Y005111D03*
D18*
X005038Y002015D03*
X005038Y001286D03*
X005885Y001286D03*
X005885Y002015D03*
D19*
X004674Y002538D03*
X004418Y002538D03*
X004162Y002538D03*
X004162Y003227D03*
X004418Y003227D03*
X004674Y003227D03*
D20*
X000855Y002942D03*
X000855Y002430D03*
D21*
X001379Y000950D03*
X001891Y000950D03*
X003887Y004749D03*
X004399Y004749D03*
D22*
X005036Y003292D03*
X006021Y003292D03*
D23*
X005883Y004954D03*
X005096Y004954D03*
D24*
X000371Y001288D02*
X000371Y000879D01*
X000529Y000879D01*
X000922Y000879D02*
X001139Y000879D01*
X001139Y000639D01*
X002375Y000639D01*
X002375Y000835D01*
X002375Y000639D02*
X005702Y000639D01*
X005702Y000855D01*
X005670Y000855D01*
X006292Y000855D01*
X006292Y001190D01*
X006056Y001190D01*
X006292Y001190D02*
X006292Y002450D01*
X006033Y002450D01*
X006033Y002454D01*
X005885Y002015D02*
X005560Y002418D01*
X005560Y002454D01*
X005320Y002292D01*
X003911Y002292D01*
X003682Y002391D01*
X003682Y002587D02*
X003458Y002587D01*
X003458Y003178D01*
X003682Y003178D01*
X003682Y003375D01*
X003682Y003572D01*
X006017Y004457D01*
X005092Y004950D02*
X005092Y005599D01*
X001430Y005599D01*
X001430Y005442D01*
X001371Y005520D01*
X000934Y005520D01*
X000816Y005131D02*
X001308Y005131D01*
X001312Y005127D01*
X001312Y004969D02*
X001430Y005442D01*
X001785Y005127D02*
X002253Y005127D01*
X002407Y005111D01*
X002568Y004973D01*
X002985Y004556D01*
X002985Y004269D01*
X002993Y004064D01*
X002796Y004064D02*
X002796Y004457D01*
X002788Y004457D01*
X002599Y004280D02*
X002599Y004064D01*
X002599Y004280D02*
X002493Y004398D01*
X003190Y004064D02*
X003190Y004772D01*
X003391Y005111D01*
X003922Y005146D01*
X003887Y004749D02*
X003887Y003965D01*
X003682Y003769D01*
X003387Y004064D02*
X003399Y004457D01*
X003497Y004517D01*
X004395Y004749D02*
X004399Y004749D01*
X004395Y004749D02*
X004395Y004950D01*
X004395Y005146D01*
X005036Y003292D02*
X005029Y003227D01*
X004674Y003227D01*
X004162Y003227D02*
X003828Y002981D01*
X003682Y002981D01*
X003682Y002784D02*
X003828Y002784D01*
X004162Y002538D01*
X003911Y002194D02*
X003682Y002194D01*
X003682Y001997D02*
X003458Y001997D01*
X003458Y002587D01*
X003182Y002646D02*
X003182Y002154D01*
X003162Y002154D01*
X003387Y001702D02*
X003387Y001229D01*
X003379Y001229D01*
X003911Y002194D02*
X005038Y001286D01*
X005202Y001503D01*
X005198Y000855D01*
X005800Y000875D02*
X005800Y001190D01*
X002414Y001387D02*
X002414Y001544D01*
X001962Y001308D02*
X001812Y001702D01*
X001615Y001702D02*
X001615Y001580D01*
X001891Y000950D01*
X001379Y000950D02*
X001371Y000950D01*
X001371Y001288D01*
X000371Y001288D01*
X000505Y002056D02*
X001320Y002056D01*
X001320Y001997D01*
X001320Y002194D02*
X000859Y002194D01*
X000859Y002430D01*
X000855Y002430D01*
X000505Y002056D02*
X000505Y003020D01*
X000407Y003237D02*
X000407Y005580D01*
X000540Y005520D01*
X000816Y004658D02*
X001296Y004658D01*
X001615Y004064D01*
X001320Y003769D02*
X001253Y003769D01*
X001253Y004221D01*
X000958Y004261D02*
X000958Y003572D01*
X001320Y003572D01*
X001320Y003375D02*
X000662Y003375D01*
X000662Y004162D01*
X000859Y003237D02*
X000407Y003237D01*
X000859Y003237D02*
X000859Y002942D01*
X000855Y002942D01*
D25*
X000505Y003020D03*
X000662Y004162D03*
X000958Y004261D03*
X001253Y004221D03*
X001430Y005442D03*
X002493Y004398D03*
X002788Y004457D03*
X003497Y004517D03*
X003162Y002154D03*
X003379Y001229D03*
X002375Y000835D03*
X001962Y001308D03*
X006017Y004457D03*
D26*
X005096Y004954D02*
X005092Y004950D01*
X004395Y004950D01*
X004418Y003227D02*
X004422Y003217D01*
X004422Y002568D01*
X004418Y002538D01*
X004422Y002548D01*
X004659Y002548D01*
X004674Y002538D01*
X004678Y002548D01*
X004678Y002706D01*
X004954Y002706D01*
X004954Y002627D01*
X004954Y002706D02*
X005781Y002706D01*
X006033Y002454D01*
X003682Y001997D02*
X003674Y001997D01*
X003615Y001938D01*
X003615Y001150D01*
X003458Y000993D01*
X003025Y000993D01*
X003025Y001229D01*
X002501Y002883D02*
X002493Y002883D01*
X002493Y003769D01*
X001320Y003769D01*
X001812Y004064D02*
X001824Y004064D01*
X001824Y004438D01*
X001509Y004772D02*
X001312Y004969D01*
X001312Y005127D01*
X001332Y001997D02*
X001320Y001997D01*
X001332Y001997D02*
X001351Y001977D01*
X001351Y001721D01*
D27*
X001351Y001721D03*
X003025Y001229D03*
X004954Y002627D03*
X001824Y004438D03*
X001509Y004772D03*
M02*
