G75*
%MOIN*%
%OFA0B0*%
%FSLAX24Y24*%
%IPPOS*%
%LPD*%
%AMOC8*
5,1,8,0,0,1.08239X$1,22.5*
%
%ADD10R,0.1821X0.1821*%
%ADD11C,0.0040*%
%ADD12R,0.0371X0.0444*%
%ADD13R,0.0444X0.0371*%
%ADD14R,0.0148X0.0138*%
%ADD15R,0.0513X0.0828*%
%ADD16R,0.0651X0.0493*%
%ADD17R,0.0218X0.0474*%
%ADD18R,0.0434X0.0356*%
%ADD19R,0.0356X0.0434*%
%ADD20R,0.0474X0.0749*%
%ADD21C,0.0595*%
%ADD22C,0.0340*%
%ADD23C,0.0360*%
D10*
X002496Y002888D03*
D11*
X002411Y003907D02*
X002394Y003907D01*
X002378Y003912D01*
X002364Y003921D01*
X002353Y003933D01*
X002346Y003949D01*
X002344Y003965D01*
X002344Y004202D01*
X002345Y004211D01*
X002349Y004219D01*
X002356Y004225D01*
X002364Y004230D01*
X002373Y004231D01*
X002432Y004231D01*
X002440Y004231D01*
X002448Y004229D01*
X002455Y004224D01*
X002460Y004218D01*
X002462Y004210D01*
X002462Y004202D01*
X002462Y003965D01*
X002459Y003949D01*
X002452Y003933D01*
X002441Y003921D01*
X002427Y003912D01*
X002411Y003907D01*
X002457Y003944D02*
X002348Y003944D01*
X002344Y003983D02*
X002462Y003983D01*
X002462Y004021D02*
X002344Y004021D01*
X002344Y004060D02*
X002462Y004060D01*
X002462Y004098D02*
X002344Y004098D01*
X002344Y004137D02*
X002462Y004137D01*
X002462Y004175D02*
X002344Y004175D01*
X002347Y004214D02*
X002461Y004214D01*
X002540Y004202D02*
X002542Y004211D01*
X002546Y004219D01*
X002553Y004225D01*
X002561Y004230D01*
X002570Y004231D01*
X002629Y004231D01*
X002637Y004231D01*
X002645Y004229D01*
X002652Y004224D01*
X002656Y004218D01*
X002659Y004210D01*
X002659Y004202D01*
X002659Y003965D01*
X002656Y003949D01*
X002649Y003933D01*
X002638Y003921D01*
X002624Y003912D01*
X002608Y003907D01*
X002591Y003907D01*
X002575Y003912D01*
X002561Y003921D01*
X002550Y003933D01*
X002543Y003949D01*
X002540Y003965D01*
X002540Y004202D01*
X002544Y004214D02*
X002658Y004214D01*
X002659Y004175D02*
X002540Y004175D01*
X002540Y004137D02*
X002659Y004137D01*
X002659Y004098D02*
X002540Y004098D01*
X002540Y004060D02*
X002659Y004060D01*
X002659Y004021D02*
X002540Y004021D01*
X002540Y003983D02*
X002659Y003983D01*
X002654Y003944D02*
X002545Y003944D01*
X002737Y003965D02*
X002737Y004202D01*
X002739Y004211D01*
X002743Y004219D01*
X002749Y004225D01*
X002758Y004230D01*
X002767Y004231D01*
X002826Y004231D01*
X002834Y004231D01*
X002842Y004229D01*
X002849Y004224D01*
X002853Y004218D01*
X002856Y004210D01*
X002855Y004202D01*
X002855Y003965D01*
X002853Y003949D01*
X002846Y003933D01*
X002835Y003921D01*
X002821Y003912D01*
X002805Y003907D01*
X002788Y003907D01*
X002772Y003912D01*
X002758Y003921D01*
X002747Y003933D01*
X002740Y003949D01*
X002737Y003965D01*
X002737Y003983D02*
X002855Y003983D01*
X002855Y004021D02*
X002737Y004021D01*
X002737Y004060D02*
X002855Y004060D01*
X002855Y004098D02*
X002737Y004098D01*
X002737Y004137D02*
X002855Y004137D01*
X002855Y004175D02*
X002737Y004175D01*
X002740Y004214D02*
X002854Y004214D01*
X002934Y004202D02*
X002936Y004211D01*
X002940Y004219D01*
X002946Y004225D01*
X002955Y004230D01*
X002964Y004231D01*
X003023Y004231D01*
X003031Y004231D01*
X003039Y004229D01*
X003045Y004224D01*
X003050Y004218D01*
X003053Y004210D01*
X003052Y004202D01*
X003052Y003965D01*
X003050Y003949D01*
X003043Y003933D01*
X003032Y003921D01*
X003018Y003912D01*
X003002Y003907D01*
X002985Y003907D01*
X002969Y003912D01*
X002955Y003921D01*
X002944Y003933D01*
X002937Y003949D01*
X002934Y003965D01*
X002934Y004202D01*
X002937Y004214D02*
X003051Y004214D01*
X003052Y004175D02*
X002934Y004175D01*
X002934Y004137D02*
X003052Y004137D01*
X003052Y004098D02*
X002934Y004098D01*
X002934Y004060D02*
X003052Y004060D01*
X003052Y004021D02*
X002934Y004021D01*
X002934Y003983D02*
X003052Y003983D01*
X003048Y003944D02*
X002939Y003944D01*
X002851Y003944D02*
X002742Y003944D01*
X003131Y003965D02*
X003131Y004202D01*
X003132Y004211D01*
X003137Y004219D01*
X003143Y004225D01*
X003151Y004230D01*
X003161Y004231D01*
X003220Y004231D01*
X003228Y004231D01*
X003236Y004229D01*
X003242Y004224D01*
X003247Y004218D01*
X003249Y004210D01*
X003249Y004202D01*
X003249Y003965D01*
X003247Y003949D01*
X003240Y003933D01*
X003229Y003921D01*
X003215Y003912D01*
X003198Y003907D01*
X003182Y003907D01*
X003166Y003912D01*
X003151Y003921D01*
X003140Y003933D01*
X003133Y003949D01*
X003131Y003965D01*
X003131Y003983D02*
X003249Y003983D01*
X003249Y004021D02*
X003131Y004021D01*
X003131Y004060D02*
X003249Y004060D01*
X003249Y004098D02*
X003131Y004098D01*
X003131Y004137D02*
X003249Y004137D01*
X003249Y004175D02*
X003131Y004175D01*
X003134Y004214D02*
X003248Y004214D01*
X003328Y004202D02*
X003329Y004211D01*
X003333Y004219D01*
X003340Y004225D01*
X003348Y004230D01*
X003357Y004231D01*
X003416Y004231D01*
X003425Y004231D01*
X003432Y004229D01*
X003439Y004224D01*
X003444Y004218D01*
X003446Y004210D01*
X003446Y004202D01*
X003446Y003965D01*
X003444Y003949D01*
X003437Y003933D01*
X003426Y003921D01*
X003411Y003912D01*
X003395Y003907D01*
X003378Y003907D01*
X003362Y003912D01*
X003348Y003921D01*
X003337Y003933D01*
X003330Y003949D01*
X003328Y003965D01*
X003328Y004202D01*
X003331Y004214D02*
X003445Y004214D01*
X003446Y004175D02*
X003328Y004175D01*
X003328Y004137D02*
X003446Y004137D01*
X003446Y004098D02*
X003328Y004098D01*
X003328Y004060D02*
X003446Y004060D01*
X003446Y004021D02*
X003328Y004021D01*
X003328Y003983D02*
X003446Y003983D01*
X003442Y003944D02*
X003332Y003944D01*
X003245Y003944D02*
X003135Y003944D01*
X003530Y003793D02*
X003539Y003807D01*
X003552Y003818D01*
X003567Y003825D01*
X003584Y003828D01*
X003820Y003828D01*
X003829Y003826D01*
X003837Y003822D01*
X003844Y003815D01*
X003848Y003807D01*
X003849Y003798D01*
X003849Y003739D01*
X003850Y003731D01*
X003847Y003723D01*
X003843Y003716D01*
X003836Y003712D01*
X003828Y003709D01*
X003820Y003709D01*
X003584Y003709D01*
X003567Y003712D01*
X003552Y003719D01*
X003539Y003730D01*
X003530Y003744D01*
X003525Y003760D01*
X003525Y003777D01*
X003530Y003793D01*
X003529Y003790D02*
X003849Y003790D01*
X003849Y003752D02*
X003528Y003752D01*
X003564Y003713D02*
X003839Y003713D01*
X003829Y003629D02*
X003837Y003625D01*
X003844Y003619D01*
X003848Y003610D01*
X003849Y003601D01*
X003849Y003542D01*
X003850Y003534D01*
X003847Y003526D01*
X003843Y003519D01*
X003836Y003515D01*
X003828Y003512D01*
X003820Y003513D01*
X003584Y003513D01*
X003567Y003515D01*
X003552Y003522D01*
X003539Y003533D01*
X003530Y003547D01*
X003525Y003563D01*
X003525Y003580D01*
X003530Y003596D01*
X003539Y003610D01*
X003552Y003621D01*
X003567Y003628D01*
X003584Y003631D01*
X003820Y003631D01*
X003829Y003629D01*
X003849Y003598D02*
X003531Y003598D01*
X003526Y003559D02*
X003849Y003559D01*
X003844Y003521D02*
X003554Y003521D01*
X003567Y003431D02*
X003584Y003434D01*
X003820Y003434D01*
X003829Y003432D01*
X003837Y003428D01*
X003844Y003422D01*
X003848Y003413D01*
X003849Y003404D01*
X003849Y003345D01*
X003850Y003337D01*
X003847Y003329D01*
X003843Y003323D01*
X003836Y003318D01*
X003828Y003315D01*
X003820Y003316D01*
X003584Y003316D01*
X003567Y003318D01*
X003552Y003325D01*
X003539Y003336D01*
X003530Y003350D01*
X003525Y003366D01*
X003525Y003383D01*
X003530Y003399D01*
X003539Y003413D01*
X003552Y003424D01*
X003567Y003431D01*
X003534Y003405D02*
X003849Y003405D01*
X003849Y003367D02*
X003525Y003367D01*
X003548Y003328D02*
X003847Y003328D01*
X003829Y003236D02*
X003837Y003231D01*
X003844Y003225D01*
X003848Y003217D01*
X003849Y003207D01*
X003849Y003148D01*
X003850Y003140D01*
X003847Y003132D01*
X003843Y003126D01*
X003836Y003121D01*
X003828Y003119D01*
X003820Y003119D01*
X003584Y003119D01*
X003567Y003121D01*
X003552Y003128D01*
X003539Y003139D01*
X003530Y003153D01*
X003525Y003170D01*
X003525Y003186D01*
X003530Y003202D01*
X003539Y003217D01*
X003552Y003228D01*
X003567Y003235D01*
X003584Y003237D01*
X003820Y003237D01*
X003829Y003236D01*
X003849Y003213D02*
X003537Y003213D01*
X003525Y003174D02*
X003849Y003174D01*
X003848Y003136D02*
X003543Y003136D01*
X003567Y003038D02*
X003584Y003040D01*
X003820Y003040D01*
X003829Y003039D01*
X003837Y003035D01*
X003844Y003028D01*
X003848Y003020D01*
X003849Y003011D01*
X003849Y002952D01*
X003850Y002943D01*
X003539Y002943D01*
X003539Y002942D02*
X003530Y002957D01*
X003525Y002973D01*
X003525Y002990D01*
X003530Y003006D01*
X003539Y003020D01*
X003552Y003031D01*
X003567Y003038D01*
X003540Y003020D02*
X003848Y003020D01*
X003849Y002982D02*
X003525Y002982D01*
X003539Y002942D02*
X003552Y002931D01*
X003567Y002924D01*
X003584Y002922D01*
X003820Y002922D01*
X003828Y002922D01*
X003836Y002924D01*
X003843Y002929D01*
X003847Y002936D01*
X003850Y002943D01*
X003829Y002842D02*
X003837Y002838D01*
X003844Y002831D01*
X003848Y002823D01*
X003849Y002814D01*
X003849Y002755D01*
X003850Y002747D01*
X003847Y002739D01*
X003843Y002732D01*
X003836Y002727D01*
X003828Y002725D01*
X003820Y002725D01*
X003584Y002725D01*
X003567Y002728D01*
X003552Y002735D01*
X003539Y002746D01*
X003530Y002760D01*
X003525Y002776D01*
X003525Y002793D01*
X003530Y002809D01*
X003539Y002823D01*
X003552Y002834D01*
X003567Y002841D01*
X003584Y002843D01*
X003820Y002843D01*
X003829Y002842D01*
X003846Y002828D02*
X003545Y002828D01*
X003525Y002789D02*
X003849Y002789D01*
X003850Y002751D02*
X003536Y002751D01*
X003567Y002644D02*
X003584Y002646D01*
X003820Y002646D01*
X003829Y002645D01*
X003837Y002641D01*
X003844Y002634D01*
X003848Y002626D01*
X003849Y002617D01*
X003849Y002558D01*
X003850Y002550D01*
X003847Y002542D01*
X003843Y002535D01*
X003836Y002530D01*
X003828Y002528D01*
X003820Y002528D01*
X003584Y002528D01*
X003567Y002531D01*
X003552Y002538D01*
X003539Y002549D01*
X003530Y002563D01*
X003525Y002579D01*
X003525Y002596D01*
X003530Y002612D01*
X003539Y002626D01*
X003552Y002637D01*
X003567Y002644D01*
X003550Y002635D02*
X003843Y002635D01*
X003849Y002597D02*
X003526Y002597D01*
X003533Y002558D02*
X003849Y002558D01*
X003829Y002448D02*
X003837Y002444D01*
X003844Y002437D01*
X003848Y002429D01*
X003849Y002420D01*
X003849Y002361D01*
X003850Y002353D01*
X003847Y002345D01*
X003843Y002338D01*
X003836Y002334D01*
X003828Y002331D01*
X003820Y002331D01*
X003584Y002331D01*
X003567Y002334D01*
X003552Y002341D01*
X003539Y002352D01*
X003530Y002366D01*
X003525Y002382D01*
X003525Y002399D01*
X003530Y002415D01*
X003539Y002429D01*
X003552Y002440D01*
X003567Y002447D01*
X003584Y002450D01*
X003820Y002450D01*
X003829Y002448D01*
X003838Y002443D02*
X003558Y002443D01*
X003527Y002404D02*
X003849Y002404D01*
X003849Y002366D02*
X003530Y002366D01*
X003567Y002250D02*
X003584Y002253D01*
X003820Y002253D01*
X003829Y002251D01*
X003837Y002247D01*
X003844Y002241D01*
X003848Y002232D01*
X003849Y002223D01*
X003849Y002164D01*
X003850Y002156D01*
X003847Y002148D01*
X003843Y002142D01*
X003836Y002137D01*
X003828Y002134D01*
X003820Y002135D01*
X003584Y002135D01*
X003567Y002137D01*
X003552Y002144D01*
X003539Y002155D01*
X003530Y002169D01*
X003525Y002185D01*
X003525Y002202D01*
X003530Y002218D01*
X003539Y002232D01*
X003552Y002243D01*
X003567Y002250D01*
X003831Y002250D01*
X003849Y002212D02*
X003528Y002212D01*
X003529Y002173D02*
X003849Y002173D01*
X003830Y002135D02*
X003582Y002135D01*
X003584Y002056D02*
X003820Y002056D01*
X003829Y002054D01*
X003837Y002050D01*
X003844Y002044D01*
X003848Y002036D01*
X003849Y002026D01*
X003849Y001967D01*
X003850Y001959D01*
X003847Y001951D01*
X003843Y001945D01*
X003836Y001940D01*
X003828Y001938D01*
X003820Y001938D01*
X003584Y001938D01*
X003567Y001940D01*
X003552Y001947D01*
X003539Y001958D01*
X003530Y001972D01*
X003525Y001988D01*
X003525Y002005D01*
X003530Y002021D01*
X003539Y002036D01*
X003552Y002047D01*
X003567Y002054D01*
X003584Y002056D01*
X003529Y002019D02*
X003849Y002019D01*
X003849Y001981D02*
X003528Y001981D01*
X003562Y001942D02*
X003839Y001942D01*
X003444Y001817D02*
X003446Y001800D01*
X003446Y001564D01*
X003444Y001555D01*
X003440Y001546D01*
X003434Y001540D01*
X003426Y001536D01*
X003416Y001534D01*
X003357Y001534D01*
X003349Y001534D01*
X003341Y001536D01*
X003335Y001541D01*
X003330Y001548D01*
X003328Y001556D01*
X003328Y001564D01*
X003328Y001800D01*
X003330Y001817D01*
X003337Y001832D01*
X003348Y001845D01*
X003362Y001854D01*
X003378Y001858D01*
X003395Y001858D01*
X003411Y001854D01*
X003426Y001845D01*
X003437Y001832D01*
X003444Y001817D01*
X003439Y001827D02*
X003335Y001827D01*
X003328Y001788D02*
X003446Y001788D01*
X003446Y001750D02*
X003328Y001750D01*
X003328Y001711D02*
X003446Y001711D01*
X003446Y001673D02*
X003328Y001673D01*
X003328Y001634D02*
X003446Y001634D01*
X003446Y001596D02*
X003328Y001596D01*
X003328Y001557D02*
X003445Y001557D01*
X003249Y001564D02*
X003249Y001800D01*
X003247Y001817D01*
X003240Y001832D01*
X003229Y001845D01*
X003215Y001854D01*
X003198Y001858D01*
X003182Y001858D01*
X003166Y001854D01*
X003151Y001845D01*
X003140Y001832D01*
X003133Y001817D01*
X003131Y001800D01*
X003131Y001564D01*
X003131Y001556D01*
X003133Y001548D01*
X003138Y001541D01*
X003144Y001536D01*
X003152Y001534D01*
X003161Y001534D01*
X003220Y001534D01*
X003229Y001536D01*
X003237Y001540D01*
X003243Y001546D01*
X003248Y001555D01*
X003249Y001564D01*
X003248Y001557D02*
X003131Y001557D01*
X003131Y001596D02*
X003249Y001596D01*
X003249Y001634D02*
X003131Y001634D01*
X003131Y001673D02*
X003249Y001673D01*
X003249Y001711D02*
X003131Y001711D01*
X003131Y001750D02*
X003249Y001750D01*
X003249Y001788D02*
X003131Y001788D01*
X003138Y001827D02*
X003242Y001827D01*
X003052Y001800D02*
X003052Y001564D01*
X003051Y001555D01*
X003047Y001546D01*
X003040Y001540D01*
X003032Y001536D01*
X003023Y001534D01*
X002964Y001534D01*
X002955Y001534D01*
X002948Y001536D01*
X002941Y001541D01*
X002936Y001548D01*
X002934Y001556D01*
X002934Y001564D01*
X002934Y001800D01*
X002937Y001817D01*
X002944Y001832D01*
X002955Y001845D01*
X002969Y001854D01*
X002985Y001858D01*
X003002Y001858D01*
X003018Y001854D01*
X003032Y001845D01*
X003043Y001832D01*
X003050Y001817D01*
X003052Y001800D01*
X003052Y001788D02*
X002934Y001788D01*
X002934Y001750D02*
X003052Y001750D01*
X003052Y001711D02*
X002934Y001711D01*
X002934Y001673D02*
X003052Y001673D01*
X003052Y001634D02*
X002934Y001634D01*
X002934Y001596D02*
X003052Y001596D01*
X003051Y001557D02*
X002934Y001557D01*
X002855Y001564D02*
X002854Y001555D01*
X002850Y001546D01*
X002843Y001540D01*
X002835Y001536D01*
X002826Y001534D01*
X002767Y001534D01*
X002759Y001534D01*
X002751Y001536D01*
X002744Y001541D01*
X002739Y001548D01*
X002737Y001556D01*
X002737Y001564D01*
X002737Y001800D01*
X002740Y001817D01*
X002747Y001832D01*
X002758Y001845D01*
X002772Y001854D01*
X002788Y001858D01*
X002805Y001858D01*
X002821Y001854D01*
X002835Y001845D01*
X002846Y001832D01*
X002853Y001817D01*
X002855Y001800D01*
X002855Y001564D01*
X002854Y001557D02*
X002737Y001557D01*
X002737Y001596D02*
X002855Y001596D01*
X002855Y001634D02*
X002737Y001634D01*
X002737Y001673D02*
X002855Y001673D01*
X002855Y001711D02*
X002737Y001711D01*
X002737Y001750D02*
X002855Y001750D01*
X002855Y001788D02*
X002737Y001788D01*
X002744Y001827D02*
X002848Y001827D01*
X002941Y001827D02*
X003045Y001827D01*
X002659Y001800D02*
X002659Y001564D01*
X002657Y001555D01*
X002653Y001546D01*
X002646Y001540D01*
X002638Y001536D01*
X002629Y001534D01*
X002570Y001534D01*
X002562Y001534D01*
X002554Y001536D01*
X002547Y001541D01*
X002543Y001548D01*
X002540Y001556D01*
X002540Y001564D01*
X002540Y001800D01*
X002543Y001817D01*
X002550Y001832D01*
X002561Y001845D01*
X002575Y001854D01*
X002591Y001858D01*
X002608Y001858D01*
X002624Y001854D01*
X002638Y001845D01*
X002649Y001832D01*
X002656Y001817D01*
X002659Y001800D01*
X002659Y001788D02*
X002540Y001788D01*
X002540Y001750D02*
X002659Y001750D01*
X002659Y001711D02*
X002540Y001711D01*
X002540Y001673D02*
X002659Y001673D01*
X002659Y001634D02*
X002540Y001634D01*
X002540Y001596D02*
X002659Y001596D01*
X002658Y001557D02*
X002540Y001557D01*
X002462Y001564D02*
X002460Y001555D01*
X002456Y001546D01*
X002450Y001540D01*
X002441Y001536D01*
X002432Y001534D01*
X002373Y001534D01*
X002365Y001534D01*
X002357Y001536D01*
X002350Y001541D01*
X002346Y001548D01*
X002343Y001556D01*
X002344Y001564D01*
X002344Y001800D01*
X002346Y001817D01*
X002353Y001832D01*
X002364Y001845D01*
X002378Y001854D01*
X002394Y001858D01*
X002411Y001858D01*
X002427Y001854D01*
X002441Y001845D01*
X002452Y001832D01*
X002459Y001817D01*
X002462Y001800D01*
X002462Y001564D01*
X002461Y001557D02*
X002343Y001557D01*
X002344Y001596D02*
X002462Y001596D01*
X002462Y001634D02*
X002344Y001634D01*
X002344Y001673D02*
X002462Y001673D01*
X002462Y001711D02*
X002344Y001711D01*
X002344Y001750D02*
X002462Y001750D01*
X002462Y001788D02*
X002344Y001788D01*
X002351Y001827D02*
X002455Y001827D01*
X002547Y001827D02*
X002651Y001827D01*
X002265Y001800D02*
X002265Y001564D01*
X002263Y001555D01*
X002259Y001546D01*
X002253Y001540D01*
X002244Y001536D01*
X002235Y001534D01*
X002176Y001534D01*
X002168Y001534D01*
X002160Y001536D01*
X002154Y001541D01*
X002149Y001548D01*
X002146Y001556D01*
X002147Y001564D01*
X002147Y001800D01*
X002149Y001817D01*
X002156Y001832D01*
X002167Y001845D01*
X002181Y001854D01*
X002197Y001858D01*
X002214Y001858D01*
X002230Y001854D01*
X002244Y001845D01*
X002255Y001832D01*
X002262Y001817D01*
X002265Y001800D01*
X002265Y001788D02*
X002147Y001788D01*
X002147Y001750D02*
X002265Y001750D01*
X002265Y001711D02*
X002147Y001711D01*
X002147Y001673D02*
X002265Y001673D01*
X002265Y001634D02*
X002147Y001634D01*
X002147Y001596D02*
X002265Y001596D01*
X002264Y001557D02*
X002147Y001557D01*
X002068Y001564D02*
X002067Y001555D01*
X002062Y001546D01*
X002056Y001540D01*
X002048Y001536D01*
X002038Y001534D01*
X001979Y001534D01*
X001971Y001534D01*
X001963Y001536D01*
X001957Y001541D01*
X001952Y001548D01*
X001950Y001556D01*
X001950Y001564D01*
X001950Y001800D01*
X001952Y001817D01*
X001959Y001832D01*
X001970Y001845D01*
X001984Y001854D01*
X002001Y001858D01*
X002017Y001858D01*
X002033Y001854D01*
X002048Y001845D01*
X002059Y001832D01*
X002066Y001817D01*
X002068Y001800D01*
X002068Y001564D01*
X002067Y001557D02*
X001950Y001557D01*
X001950Y001596D02*
X002068Y001596D01*
X002068Y001634D02*
X001950Y001634D01*
X001950Y001673D02*
X002068Y001673D01*
X002068Y001711D02*
X001950Y001711D01*
X001950Y001750D02*
X002068Y001750D01*
X002068Y001788D02*
X001950Y001788D01*
X001957Y001827D02*
X002061Y001827D01*
X002154Y001827D02*
X002258Y001827D01*
X001871Y001800D02*
X001871Y001564D01*
X001870Y001555D01*
X001866Y001546D01*
X001859Y001540D01*
X001851Y001536D01*
X001842Y001534D01*
X001783Y001534D01*
X001774Y001534D01*
X001767Y001536D01*
X001760Y001541D01*
X001755Y001548D01*
X001753Y001556D01*
X001753Y001564D01*
X001753Y001800D01*
X001755Y001817D01*
X001762Y001832D01*
X001773Y001845D01*
X001788Y001854D01*
X001804Y001858D01*
X001820Y001858D01*
X001837Y001854D01*
X001851Y001845D01*
X001862Y001832D01*
X001869Y001817D01*
X001871Y001800D01*
X001871Y001788D02*
X001753Y001788D01*
X001753Y001750D02*
X001871Y001750D01*
X001871Y001711D02*
X001753Y001711D01*
X001753Y001673D02*
X001871Y001673D01*
X001871Y001634D02*
X001753Y001634D01*
X001753Y001596D02*
X001871Y001596D01*
X001870Y001557D02*
X001753Y001557D01*
X001674Y001564D02*
X001673Y001555D01*
X001669Y001546D01*
X001662Y001540D01*
X001654Y001536D01*
X001645Y001534D01*
X001586Y001534D01*
X001578Y001534D01*
X001570Y001536D01*
X001563Y001541D01*
X001558Y001548D01*
X001556Y001556D01*
X001556Y001564D01*
X001556Y001800D01*
X001559Y001817D01*
X001566Y001832D01*
X001577Y001845D01*
X001591Y001854D01*
X001607Y001858D01*
X001624Y001858D01*
X001640Y001854D01*
X001654Y001845D01*
X001665Y001832D01*
X001672Y001817D01*
X001674Y001800D01*
X001674Y001564D01*
X001673Y001557D02*
X001556Y001557D01*
X001556Y001596D02*
X001674Y001596D01*
X001674Y001634D02*
X001556Y001634D01*
X001556Y001673D02*
X001674Y001673D01*
X001674Y001711D02*
X001556Y001711D01*
X001556Y001750D02*
X001674Y001750D01*
X001674Y001788D02*
X001556Y001788D01*
X001563Y001827D02*
X001667Y001827D01*
X001760Y001827D02*
X001864Y001827D01*
X001472Y001972D02*
X001463Y001958D01*
X001450Y001947D01*
X001435Y001940D01*
X001418Y001938D01*
X001182Y001938D01*
X001173Y001939D01*
X001165Y001943D01*
X001158Y001950D01*
X001154Y001958D01*
X001153Y001967D01*
X001153Y002026D01*
X001152Y002035D01*
X001155Y002042D01*
X001160Y002049D01*
X001166Y002054D01*
X001174Y002056D01*
X001182Y002056D01*
X001418Y002056D01*
X001435Y002054D01*
X001450Y002047D01*
X001463Y002036D01*
X001472Y002021D01*
X001477Y002005D01*
X001477Y001988D01*
X001472Y001972D01*
X001475Y001981D02*
X001153Y001981D01*
X001153Y002019D02*
X001473Y002019D01*
X001440Y001942D02*
X001167Y001942D01*
X001182Y002135D02*
X001173Y002136D01*
X001165Y002140D01*
X001158Y002147D01*
X001154Y002155D01*
X001153Y002164D01*
X001153Y002223D01*
X001152Y002231D01*
X001155Y002239D01*
X001160Y002246D01*
X001166Y002251D01*
X001174Y002253D01*
X001182Y002253D01*
X001418Y002253D01*
X001435Y002250D01*
X001450Y002243D01*
X001463Y002232D01*
X001472Y002218D01*
X001477Y002202D01*
X001477Y002185D01*
X001472Y002169D01*
X001463Y002155D01*
X001450Y002144D01*
X001435Y002137D01*
X001418Y002135D01*
X001182Y002135D01*
X001181Y002135D02*
X001420Y002135D01*
X001473Y002173D02*
X001153Y002173D01*
X001153Y002212D02*
X001474Y002212D01*
X001435Y002250D02*
X001166Y002250D01*
X001182Y002331D02*
X001173Y002333D01*
X001165Y002337D01*
X001158Y002344D01*
X001154Y002352D01*
X001153Y002361D01*
X001153Y002420D01*
X001152Y002428D01*
X001155Y002436D01*
X001160Y002443D01*
X001445Y002443D01*
X001450Y002440D02*
X001463Y002429D01*
X001472Y002415D01*
X001477Y002399D01*
X001477Y002382D01*
X001472Y002366D01*
X001463Y002352D01*
X001450Y002341D01*
X001435Y002334D01*
X001418Y002331D01*
X001182Y002331D01*
X001153Y002366D02*
X001472Y002366D01*
X001475Y002404D02*
X001153Y002404D01*
X001160Y002443D02*
X001166Y002448D01*
X001174Y002450D01*
X001182Y002450D01*
X001418Y002450D01*
X001435Y002447D01*
X001450Y002440D01*
X001435Y002531D02*
X001418Y002528D01*
X001182Y002528D01*
X001173Y002530D01*
X001165Y002534D01*
X001158Y002541D01*
X001154Y002549D01*
X001153Y002558D01*
X001153Y002617D01*
X001152Y002625D01*
X001155Y002633D01*
X001160Y002640D01*
X001166Y002644D01*
X001174Y002647D01*
X001182Y002646D01*
X001418Y002646D01*
X001435Y002644D01*
X001450Y002637D01*
X001463Y002626D01*
X001472Y002612D01*
X001477Y002596D01*
X001477Y002579D01*
X001472Y002563D01*
X001463Y002549D01*
X001450Y002538D01*
X001435Y002531D01*
X001469Y002558D02*
X001153Y002558D01*
X001153Y002597D02*
X001477Y002597D01*
X001452Y002635D02*
X001156Y002635D01*
X001173Y002727D02*
X001165Y002731D01*
X001158Y002737D01*
X001154Y002746D01*
X001153Y002755D01*
X001153Y002814D01*
X001152Y002822D01*
X001155Y002830D01*
X001160Y002836D01*
X001166Y002841D01*
X001174Y002844D01*
X001182Y002843D01*
X001418Y002843D01*
X001435Y002841D01*
X001450Y002834D01*
X001463Y002823D01*
X001472Y002809D01*
X001477Y002793D01*
X001477Y002776D01*
X001472Y002760D01*
X001463Y002746D01*
X001450Y002735D01*
X001435Y002728D01*
X001418Y002725D01*
X001182Y002725D01*
X001173Y002727D01*
X001153Y002751D02*
X001466Y002751D01*
X001477Y002789D02*
X001153Y002789D01*
X001154Y002828D02*
X001457Y002828D01*
X001435Y002924D02*
X001418Y002922D01*
X001182Y002922D01*
X001173Y002923D01*
X001165Y002928D01*
X001158Y002934D01*
X001154Y002942D01*
X001153Y002952D01*
X001153Y003011D01*
X001152Y003019D01*
X001155Y003027D01*
X001160Y003033D01*
X001166Y003038D01*
X001174Y003040D01*
X001182Y003040D01*
X001418Y003040D01*
X001435Y003038D01*
X001450Y003031D01*
X001463Y003020D01*
X001472Y003006D01*
X001477Y002990D01*
X001477Y002973D01*
X001472Y002957D01*
X001463Y002942D01*
X001450Y002931D01*
X001435Y002924D01*
X001464Y002943D02*
X001154Y002943D01*
X001153Y002982D02*
X001477Y002982D01*
X001462Y003020D02*
X001153Y003020D01*
X001173Y003120D02*
X001165Y003125D01*
X001158Y003131D01*
X001154Y003139D01*
X001153Y003148D01*
X001153Y003207D01*
X001152Y003216D01*
X001155Y003223D01*
X001160Y003230D01*
X001166Y003235D01*
X001174Y003237D01*
X001182Y003237D01*
X001418Y003237D01*
X001435Y003235D01*
X001450Y003228D01*
X001463Y003217D01*
X001472Y003202D01*
X001477Y003186D01*
X001477Y003170D01*
X001472Y003153D01*
X001463Y003139D01*
X001450Y003128D01*
X001435Y003121D01*
X001418Y003119D01*
X001182Y003119D01*
X001173Y003120D01*
X001156Y003136D02*
X001459Y003136D01*
X001477Y003174D02*
X001153Y003174D01*
X001152Y003213D02*
X001465Y003213D01*
X001435Y003318D02*
X001418Y003316D01*
X001182Y003316D01*
X001173Y003317D01*
X001165Y003321D01*
X001158Y003328D01*
X001154Y003336D01*
X001153Y003345D01*
X001153Y003404D01*
X001152Y003413D01*
X001155Y003420D01*
X001160Y003427D01*
X001166Y003432D01*
X001174Y003434D01*
X001182Y003434D01*
X001418Y003434D01*
X001435Y003431D01*
X001450Y003424D01*
X001463Y003413D01*
X001472Y003399D01*
X001477Y003383D01*
X001477Y003366D01*
X001472Y003350D01*
X001463Y003336D01*
X001450Y003325D01*
X001435Y003318D01*
X001454Y003328D02*
X001158Y003328D01*
X001153Y003367D02*
X001477Y003367D01*
X001468Y003405D02*
X001153Y003405D01*
X001173Y003514D02*
X001165Y003518D01*
X001158Y003525D01*
X001154Y003533D01*
X001153Y003542D01*
X001153Y003601D01*
X001152Y003609D01*
X001155Y003617D01*
X001160Y003624D01*
X001166Y003629D01*
X001174Y003631D01*
X001182Y003631D01*
X001418Y003631D01*
X001435Y003628D01*
X001450Y003621D01*
X001463Y003610D01*
X001472Y003596D01*
X001477Y003580D01*
X001477Y003563D01*
X001472Y003547D01*
X001463Y003533D01*
X001450Y003522D01*
X001435Y003515D01*
X001418Y003513D01*
X001182Y003513D01*
X001173Y003514D01*
X001162Y003521D02*
X001448Y003521D01*
X001476Y003559D02*
X001153Y003559D01*
X001153Y003598D02*
X001471Y003598D01*
X001435Y003712D02*
X001418Y003709D01*
X001182Y003709D01*
X001173Y003711D01*
X001165Y003715D01*
X001158Y003722D01*
X001154Y003730D01*
X001153Y003739D01*
X001153Y003798D01*
X001152Y003806D01*
X001155Y003814D01*
X001160Y003821D01*
X001166Y003825D01*
X001174Y003828D01*
X001182Y003828D01*
X001418Y003828D01*
X001435Y003825D01*
X001450Y003818D01*
X001463Y003807D01*
X001472Y003793D01*
X001477Y003777D01*
X001477Y003760D01*
X001472Y003744D01*
X001463Y003730D01*
X001450Y003719D01*
X001435Y003712D01*
X001438Y003713D02*
X001168Y003713D01*
X001153Y003752D02*
X001474Y003752D01*
X001473Y003790D02*
X001153Y003790D01*
X001559Y003949D02*
X001556Y003965D01*
X001556Y004202D01*
X001558Y004211D01*
X001562Y004219D01*
X001568Y004225D01*
X001577Y004230D01*
X001586Y004231D01*
X001645Y004231D01*
X001653Y004231D01*
X001661Y004229D01*
X001667Y004224D01*
X001672Y004218D01*
X001675Y004210D01*
X001674Y004202D01*
X001674Y003965D01*
X001672Y003949D01*
X001665Y003933D01*
X001654Y003921D01*
X001640Y003912D01*
X001624Y003907D01*
X001607Y003907D01*
X001591Y003912D01*
X001577Y003921D01*
X001566Y003933D01*
X001559Y003949D01*
X001561Y003944D02*
X001670Y003944D01*
X001674Y003983D02*
X001556Y003983D01*
X001556Y004021D02*
X001674Y004021D01*
X001674Y004060D02*
X001556Y004060D01*
X001556Y004098D02*
X001674Y004098D01*
X001674Y004137D02*
X001556Y004137D01*
X001556Y004175D02*
X001674Y004175D01*
X001673Y004214D02*
X001559Y004214D01*
X001753Y004202D02*
X001754Y004211D01*
X001759Y004219D01*
X001765Y004225D01*
X001773Y004230D01*
X001783Y004231D01*
X001842Y004231D01*
X001850Y004231D01*
X001858Y004229D01*
X001864Y004224D01*
X001869Y004218D01*
X001871Y004210D01*
X001871Y004202D01*
X001871Y003965D01*
X001869Y003949D01*
X001862Y003933D01*
X001851Y003921D01*
X001837Y003912D01*
X001820Y003907D01*
X001804Y003907D01*
X001788Y003912D01*
X001773Y003921D01*
X001762Y003933D01*
X001755Y003949D01*
X001753Y003965D01*
X001753Y004202D01*
X001756Y004214D02*
X001870Y004214D01*
X001871Y004175D02*
X001753Y004175D01*
X001753Y004137D02*
X001871Y004137D01*
X001871Y004098D02*
X001753Y004098D01*
X001753Y004060D02*
X001871Y004060D01*
X001871Y004021D02*
X001753Y004021D01*
X001753Y003983D02*
X001871Y003983D01*
X001867Y003944D02*
X001757Y003944D01*
X001950Y003965D02*
X001950Y004202D01*
X001951Y004211D01*
X001956Y004219D01*
X001962Y004225D01*
X001970Y004230D01*
X001979Y004231D01*
X002038Y004231D01*
X002047Y004231D01*
X002054Y004229D01*
X002061Y004224D01*
X002066Y004218D01*
X002068Y004210D01*
X002068Y004202D01*
X002068Y003965D01*
X002066Y003949D01*
X002059Y003933D01*
X002048Y003921D01*
X002033Y003912D01*
X002017Y003907D01*
X002001Y003907D01*
X001984Y003912D01*
X001970Y003921D01*
X001959Y003933D01*
X001952Y003949D01*
X001950Y003965D01*
X001950Y003983D02*
X002068Y003983D01*
X002068Y004021D02*
X001950Y004021D01*
X001950Y004060D02*
X002068Y004060D01*
X002068Y004098D02*
X001950Y004098D01*
X001950Y004137D02*
X002068Y004137D01*
X002068Y004175D02*
X001950Y004175D01*
X001953Y004214D02*
X002067Y004214D01*
X002147Y004202D02*
X002148Y004211D01*
X002152Y004219D01*
X002159Y004225D01*
X002167Y004230D01*
X002176Y004231D01*
X002235Y004231D01*
X002243Y004231D01*
X002251Y004229D01*
X002258Y004224D01*
X002263Y004218D01*
X002265Y004210D01*
X002265Y004202D01*
X002265Y003965D01*
X002262Y003949D01*
X002255Y003933D01*
X002244Y003921D01*
X002230Y003912D01*
X002214Y003907D01*
X002197Y003907D01*
X002181Y003912D01*
X002167Y003921D01*
X002156Y003933D01*
X002149Y003949D01*
X002147Y003965D01*
X002147Y004202D01*
X002150Y004214D02*
X002264Y004214D01*
X002265Y004175D02*
X002147Y004175D01*
X002147Y004137D02*
X002265Y004137D01*
X002265Y004098D02*
X002147Y004098D01*
X002147Y004060D02*
X002265Y004060D01*
X002265Y004021D02*
X002147Y004021D01*
X002147Y003983D02*
X002265Y003983D01*
X002260Y003944D02*
X002151Y003944D01*
X002064Y003944D02*
X001954Y003944D01*
D12*
X000816Y004658D03*
X000816Y005131D03*
D13*
X001312Y005127D03*
X001785Y005127D03*
X003922Y005146D03*
X004395Y005146D03*
X005560Y002454D03*
X006033Y002454D03*
X005670Y000855D03*
X005198Y000855D03*
D14*
X000524Y000879D03*
X000927Y000879D03*
X000939Y005520D03*
X000536Y005520D03*
D15*
X002407Y005111D03*
X003391Y005111D03*
D16*
X005038Y002015D03*
X005038Y001286D03*
X005885Y001286D03*
X005885Y002015D03*
D17*
X004674Y002538D03*
X004418Y002538D03*
X004162Y002538D03*
X004162Y003227D03*
X004418Y003227D03*
X004674Y003227D03*
D18*
X000855Y002942D03*
X000855Y002430D03*
D19*
X001379Y000950D03*
X001891Y000950D03*
X003887Y004749D03*
X004399Y004749D03*
D20*
X005036Y003292D03*
X006021Y003292D03*
D21*
X005883Y004954D03*
X005096Y004954D03*
D22*
X006017Y004457D03*
X003497Y004517D03*
X002788Y004457D03*
X002493Y004398D03*
X001430Y005442D03*
X001253Y004221D03*
X000958Y004261D03*
X000662Y004162D03*
X000505Y003020D03*
X001962Y001308D03*
X002375Y000835D03*
X003379Y001229D03*
X003162Y002154D03*
D23*
X003025Y001229D03*
X001351Y001721D03*
X001824Y004438D03*
X001509Y004772D03*
X004954Y002627D03*
M02*
