G75*
G70*
%OFA0B0*%
%FSLAX24Y24*%
%IPPOS*%
%LPD*%
%AMOC8*
5,1,8,0,0,1.08239X$1,22.5*
%
%ADD10R,0.1000X0.4500*%
%ADD11R,0.1000X0.3500*%
%ADD12R,0.0750X0.2500*%
%ADD13C,0.0050*%
D10*
X020667Y014850D03*
D11*
X025667Y014850D03*
D12*
X026542Y014850D03*
X019792Y014850D03*
D13*
X021917Y010100D02*
X021919Y010170D01*
X021925Y010240D01*
X021935Y010309D01*
X021948Y010378D01*
X021966Y010446D01*
X021987Y010513D01*
X022012Y010578D01*
X022041Y010642D01*
X022073Y010705D01*
X022109Y010765D01*
X022148Y010823D01*
X022190Y010879D01*
X022235Y010933D01*
X022283Y010984D01*
X022334Y011032D01*
X022388Y011077D01*
X022444Y011119D01*
X022502Y011158D01*
X022562Y011194D01*
X022625Y011226D01*
X022689Y011255D01*
X022754Y011280D01*
X022821Y011301D01*
X022889Y011319D01*
X022958Y011332D01*
X023027Y011342D01*
X023097Y011348D01*
X023167Y011350D01*
X023237Y011348D01*
X023307Y011342D01*
X023376Y011332D01*
X023445Y011319D01*
X023513Y011301D01*
X023580Y011280D01*
X023645Y011255D01*
X023709Y011226D01*
X023772Y011194D01*
X023832Y011158D01*
X023890Y011119D01*
X023946Y011077D01*
X024000Y011032D01*
X024051Y010984D01*
X024099Y010933D01*
X024144Y010879D01*
X024186Y010823D01*
X024225Y010765D01*
X024261Y010705D01*
X024293Y010642D01*
X024322Y010578D01*
X024347Y010513D01*
X024368Y010446D01*
X024386Y010378D01*
X024399Y010309D01*
X024409Y010240D01*
X024415Y010170D01*
X024417Y010100D01*
X024415Y010030D01*
X024409Y009960D01*
X024399Y009891D01*
X024386Y009822D01*
X024368Y009754D01*
X024347Y009687D01*
X024322Y009622D01*
X024293Y009558D01*
X024261Y009495D01*
X024225Y009435D01*
X024186Y009377D01*
X024144Y009321D01*
X024099Y009267D01*
X024051Y009216D01*
X024000Y009168D01*
X023946Y009123D01*
X023890Y009081D01*
X023832Y009042D01*
X023772Y009006D01*
X023709Y008974D01*
X023645Y008945D01*
X023580Y008920D01*
X023513Y008899D01*
X023445Y008881D01*
X023376Y008868D01*
X023307Y008858D01*
X023237Y008852D01*
X023167Y008850D01*
X023097Y008852D01*
X023027Y008858D01*
X022958Y008868D01*
X022889Y008881D01*
X022821Y008899D01*
X022754Y008920D01*
X022689Y008945D01*
X022625Y008974D01*
X022562Y009006D01*
X022502Y009042D01*
X022444Y009081D01*
X022388Y009123D01*
X022334Y009168D01*
X022283Y009216D01*
X022235Y009267D01*
X022190Y009321D01*
X022148Y009377D01*
X022109Y009435D01*
X022073Y009495D01*
X022041Y009558D01*
X022012Y009622D01*
X021987Y009687D01*
X021966Y009754D01*
X021948Y009822D01*
X021935Y009891D01*
X021925Y009960D01*
X021919Y010030D01*
X021917Y010100D01*
M02*
