G75*
G70*
%OFA0B0*%
%FSLAX24Y24*%
%IPPOS*%
%LPD*%
%AMOC8*
5,1,8,0,0,1.08239X$1,22.5*
%
%ADD10C,0.0660*%
%ADD11OC8,0.0560*%
%ADD12OC8,0.0520*%
%ADD13OC8,0.1500*%
%ADD14C,0.0520*%
%ADD15C,0.0160*%
D10*
X002167Y006600D03*
X002667Y008100D03*
X004167Y008100D03*
X005667Y008100D03*
X006167Y006600D03*
X001167Y008100D03*
X001167Y012100D03*
X002667Y012100D03*
X004167Y012100D03*
X005667Y012100D03*
D11*
X004167Y013850D03*
X004167Y015600D03*
X001167Y015600D03*
X001167Y013850D03*
X008667Y013600D03*
X010167Y013600D03*
X010167Y016600D03*
X008667Y016600D03*
D12*
X007167Y017100D03*
X005917Y017100D03*
X005917Y013100D03*
X007167Y013100D03*
X007167Y012100D03*
X008667Y012100D03*
X013167Y010100D03*
X015167Y010100D03*
X008667Y008100D03*
X007167Y008100D03*
X006167Y005100D03*
X006167Y004100D03*
X002917Y004100D03*
X002917Y005100D03*
D13*
X001917Y001850D03*
X003917Y001850D03*
X005917Y001850D03*
X007917Y001850D03*
D14*
X010667Y005350D03*
X011667Y005350D03*
X012667Y005350D03*
X013667Y005350D03*
X013667Y008350D03*
X012667Y008350D03*
X011667Y008350D03*
X010667Y008350D03*
D15*
X011667Y008350D02*
X011667Y009100D01*
X008667Y012100D01*
X007917Y012350D02*
X007917Y009850D01*
X011667Y006100D01*
X011667Y005350D01*
X012167Y005850D02*
X012667Y005350D01*
X012167Y005850D02*
X012167Y009350D01*
X005917Y015600D01*
X005917Y017100D01*
X010167Y016600D02*
X010167Y015100D01*
X015167Y010100D01*
X013167Y010100D02*
X010167Y013100D01*
X010167Y013600D01*
X008667Y013600D01*
X012667Y009600D01*
X012667Y008350D01*
X008667Y008100D02*
X008667Y005850D01*
X006417Y003600D01*
X003667Y003600D01*
X001917Y001850D01*
X003917Y001850D02*
X005167Y003100D01*
X011667Y003100D01*
X013667Y005100D01*
X013667Y005350D01*
X007917Y012350D02*
X007167Y013100D01*
M02*
